<svg xmlns="http://www.w3.org/2000/svg" width="960" height="560" viewBox="0 0 960 560">
<rect width="100%" height="100%" fill="#ffffff"/>
<text x="480.0" y="32" text-anchor="middle" font-family="Arial" font-size="22" font-weight="700">M/M/1 - Evolucion temporal de clientes (rho=0.75)</text>
<line x1="86" y1="480.00" x2="730" y2="480.00" stroke="#e6e6e6" stroke-width="1"/>
<text x="76" y="484.00" text-anchor="end" font-family="Arial" font-size="12">0</text>
<line x1="86" y1="398.00" x2="730" y2="398.00" stroke="#e6e6e6" stroke-width="1"/>
<text x="76" y="402.00" text-anchor="end" font-family="Arial" font-size="12">2.6</text>
<line x1="86" y1="316.00" x2="730" y2="316.00" stroke="#e6e6e6" stroke-width="1"/>
<text x="76" y="320.00" text-anchor="end" font-family="Arial" font-size="12">5.2</text>
<line x1="86" y1="234.00" x2="730" y2="234.00" stroke="#e6e6e6" stroke-width="1"/>
<text x="76" y="238.00" text-anchor="end" font-family="Arial" font-size="12">7.8</text>
<line x1="86" y1="152.00" x2="730" y2="152.00" stroke="#e6e6e6" stroke-width="1"/>
<text x="76" y="156.00" text-anchor="end" font-family="Arial" font-size="12">10.4</text>
<line x1="86" y1="70.00" x2="730" y2="70.00" stroke="#e6e6e6" stroke-width="1"/>
<text x="76" y="74.00" text-anchor="end" font-family="Arial" font-size="12">13</text>
<line x1="86" y1="480" x2="730" y2="480" stroke="#222" stroke-width="1.5"/>
<line x1="86" y1="70" x2="86" y2="480" stroke="#222" stroke-width="1.5"/>
<text x="86.00" y="504" text-anchor="middle" font-family="Arial" font-size="12">0</text>
<text x="247.00" y="504" text-anchor="middle" font-family="Arial" font-size="12">25</text>
<text x="408.00" y="504" text-anchor="middle" font-family="Arial" font-size="12">50</text>
<text x="569.00" y="504" text-anchor="middle" font-family="Arial" font-size="12">75</text>
<text x="730.00" y="504" text-anchor="middle" font-family="Arial" font-size="12">100</text>
<text x="408.0" y="536" text-anchor="middle" font-family="Arial" font-size="14">Tiempo simulado (horas)</text>
<text x="26" y="275.0" text-anchor="middle" font-family="Arial" font-size="14" transform="rotate(-90 26 275.0)">Clientes</text>
<polyline points="86.00,480.00 87.68,448.46 87.69,480.00 87.78,448.46 87.86,416.92 87.95,385.38 88.43,353.85 88.54,322.31 88.73,353.85 89.77,322.31 89.82,353.85 89.88,385.38 90.85,353.85 91.22,385.38 91.50,416.92 91.59,448.46 91.70,416.92 92.15,448.46 92.35,416.92 92.68,385.38 93.84,416.92 94.74,448.46 94.79,480.00 94.88,448.46 94.91,480.00 96.19,448.46 96.53,480.00 96.96,448.46 97.33,416.92 97.72,448.46 97.76,416.92 97.99,448.46 98.49,480.00 98.61,448.46 98.92,480.00 99.07,448.46 99.61,480.00 100.06,448.46 100.26,416.92 101.18,448.46 101.49,480.00 102.82,448.46 103.45,480.00 103.67,448.46 103.69,480.00 104.35,448.46 104.77,416.92 105.17,385.38 105.67,353.85 106.42,322.31 108.08,353.85 108.55,385.38 108.85,353.85 108.94,322.31 109.04,353.85 109.41,385.38 109.44,416.92 109.53,448.46 111.41,480.00 113.50,448.46 114.45,416.92 115.26,448.46 116.10,480.00 116.76,448.46 117.14,416.92 117.69,448.46 118.25,480.00 118.94,448.46 119.78,416.92 119.92,385.38 120.19,353.85 120.28,322.31 120.45,353.85 120.49,322.31 120.55,353.85 121.35,322.31 121.45,290.77 122.04,322.31 122.20,353.85 123.45,385.38 123.49,416.92 123.72,448.46 123.84,480.00 124.88,448.46 125.68,480.00 126.00,448.46 126.03,480.00 126.85,448.46 126.87,480.00 128.28,448.46 128.43,416.92 128.58,448.46 128.81,416.92 128.99,448.46 129.47,480.00 130.06,448.46 130.50,416.92 130.55,385.38 130.78,416.92 131.00,448.46 131.03,480.00 131.06,448.46 131.11,480.00 136.28,448.46 136.53,480.00 136.69,448.46 136.73,480.00 137.22,448.46 137.68,416.92 138.42,385.38 138.75,353.85 138.90,385.38 139.32,353.85 139.42,322.31 139.98,290.77 140.14,322.31 140.24,353.85 140.46,385.38 140.63,353.85 140.81,385.38 140.92,416.92 141.65,448.46 141.82,480.00 141.92,448.46 142.55,480.00 142.86,448.46 143.88,480.00 143.98,448.46 144.21,416.92 145.47,448.46 145.87,416.92 146.44,385.38 146.52,416.92 147.30,385.38 147.84,416.92 148.50,448.46 149.06,416.92 149.20,448.46 150.23,480.00 150.32,448.46 150.36,416.92 150.44,385.38 150.57,416.92 150.72,448.46 151.34,480.00 153.73,448.46 154.34,480.00 154.54,448.46 155.50,480.00 156.98,448.46 157.16,416.92 157.79,448.46 157.91,480.00 158.08,448.46 158.39,416.92 158.70,448.46 158.80,416.92 159.29,385.38 159.35,416.92 159.49,385.38 160.05,416.92 160.34,448.46 160.93,480.00 161.98,448.46 162.21,480.00 163.22,448.46 163.85,416.92 164.85,448.46 165.17,416.92 165.60,385.38 166.10,353.85 166.61,322.31 166.89,290.77 166.93,259.23 167.37,227.69 167.60,259.23 168.25,290.77 169.33,322.31 170.00,290.77 170.50,322.31 171.28,290.77 171.53,259.23 171.76,227.69 171.82,259.23 171.87,227.69 171.97,259.23 172.73,227.69 172.82,196.15 172.93,227.69 173.37,196.15 173.65,164.62 173.74,133.08 173.77,101.54 174.21,70.00 174.26,101.54 175.24,133.08 176.13,164.62 176.18,196.15 177.21,227.69 177.53,259.23 177.69,290.77 177.94,322.31 178.16,353.85 178.18,322.31 178.21,290.77 178.22,259.23 178.58,227.69 178.74,259.23 178.78,290.77 179.42,259.23 180.10,227.69 180.84,259.23 181.21,290.77 182.59,322.31 182.70,353.85 182.83,322.31 182.94,290.77 182.99,259.23 183.93,290.77 183.93,259.23 184.11,227.69 184.74,259.23 185.37,290.77 187.22,322.31 187.36,353.85 187.49,385.38 187.60,416.92 188.08,385.38 188.51,416.92 188.90,448.46 188.90,480.00 189.12,448.46 189.14,480.00 189.96,448.46 190.09,416.92 190.30,385.38 190.33,353.85 190.34,322.31 190.47,353.85 190.75,322.31 191.10,353.85 191.79,322.31 192.57,353.85 193.12,385.38 193.79,353.85 194.07,385.38 194.42,353.85 194.46,322.31 194.63,353.85 194.84,385.38 196.01,353.85 196.41,322.31 196.47,290.77 196.98,322.31 197.28,290.77 197.31,259.23 198.31,290.77 198.94,322.31 199.22,353.85 199.49,322.31 200.21,353.85 200.23,385.38 200.28,353.85 200.57,385.38 201.17,353.85 201.30,322.31 202.71,353.85 202.72,322.31 206.20,353.85 207.32,322.31 207.49,353.85 207.99,322.31 208.34,353.85 208.37,322.31 208.65,353.85 208.89,322.31 208.95,353.85 209.30,385.38 210.15,416.92 210.16,385.38 211.22,416.92 211.34,385.38 211.54,416.92 211.63,448.46 212.56,416.92 213.06,448.46 213.19,416.92 213.46,385.38 213.70,416.92 214.33,448.46 216.46,416.92 216.47,385.38 216.89,416.92 216.97,448.46 217.00,480.00 217.12,448.46 218.26,416.92 218.67,448.46 219.41,480.00 219.82,448.46 220.34,480.00 222.22,448.46 222.29,480.00 222.85,448.46 222.95,416.92 223.00,448.46 223.50,480.00 226.48,448.46 227.07,480.00 228.99,448.46 229.07,480.00 230.15,448.46 230.43,416.92 231.40,385.38 231.80,416.92 232.00,448.46 232.24,480.00 233.92,448.46 234.13,480.00 234.25,448.46 234.32,416.92 234.84,448.46 235.72,416.92 236.00,448.46 236.32,480.00 240.47,448.46 240.58,416.92 240.71,448.46 240.72,480.00 243.27,448.46 243.42,480.00 243.93,448.46 244.25,480.00 245.35,448.46 246.29,480.00 248.50,448.46 248.51,416.92 248.84,385.38 249.11,353.85 249.13,385.38 249.36,416.92 249.36,448.46 249.78,416.92 249.85,448.46 250.34,416.92 250.49,385.38 250.54,416.92 251.28,448.46 251.80,480.00 252.86,448.46 253.13,480.00 253.57,448.46 253.89,480.00 254.34,448.46 254.39,480.00 254.57,448.46 254.70,416.92 254.76,448.46 256.53,480.00 257.60,448.46 258.89,416.92 258.96,385.38 259.70,416.92 259.77,448.46 260.16,480.00 260.61,448.46 261.02,480.00 261.61,448.46 261.67,480.00 263.30,448.46 264.00,416.92 265.18,448.46 265.23,416.92 265.47,448.46 265.48,480.00 265.76,448.46 265.92,480.00 266.01,448.46 266.15,480.00 267.97,448.46 268.56,480.00 268.92,448.46 268.98,480.00 269.79,448.46 270.13,480.00 270.21,448.46 270.67,416.92 270.70,385.38 270.75,353.85 270.95,385.38 271.66,353.85 272.15,385.38 272.76,416.92 272.99,385.38 273.46,416.92 273.49,448.46 273.62,480.00 274.15,448.46 274.42,480.00 275.66,448.46 276.44,416.92 276.62,448.46 276.66,416.92 278.01,448.46 278.14,480.00 278.64,448.46 279.17,480.00 280.51,448.46 281.18,480.00 281.60,448.46 281.82,416.92 282.29,448.46 282.55,480.00 283.88,448.46 284.00,480.00 285.84,448.46 286.12,480.00 286.34,448.46 287.40,480.00 289.00,448.46 289.01,480.00 290.69,448.46 290.69,480.00 292.12,448.46 292.38,416.92 293.64,385.38 294.40,416.92 294.56,448.46 294.64,416.92 294.98,448.46 295.00,480.00 296.06,448.46 296.43,480.00 296.81,448.46 296.82,480.00 297.13,448.46 297.99,480.00 298.17,448.46 298.57,480.00 298.79,448.46 298.92,480.00 298.98,448.46 299.30,480.00 299.33,448.46 299.50,416.92 299.56,385.38 300.17,353.85 300.63,322.31 301.37,290.77 302.21,322.31 302.53,290.77 302.84,322.31 302.88,290.77 303.14,259.23 303.45,290.77 303.62,259.23 303.63,227.69 303.72,196.15 303.96,164.62 304.25,196.15 304.51,164.62 304.66,133.08 304.67,164.62 304.69,133.08 304.81,101.54 305.79,70.00 306.14,101.54 306.28,70.00 306.32,101.54 306.36,133.08 306.71,101.54 306.98,133.08 307.11,164.62 307.20,196.15 308.51,227.69 308.77,196.15 308.93,164.62 309.04,196.15 309.05,227.69 309.10,196.15 309.33,164.62 310.06,196.15 310.50,227.69 311.05,259.23 311.14,290.77 311.57,259.23 312.08,227.69 312.19,259.23 312.78,290.77 312.99,259.23 313.84,227.69 314.10,259.23 314.19,227.69 314.58,259.23 314.99,290.77 315.80,259.23 316.16,290.77 317.19,322.31 318.35,353.85 318.48,385.38 318.52,416.92 319.23,385.38 319.48,416.92 319.85,385.38 320.21,416.92 320.57,448.46 321.19,480.00 321.98,448.46 322.58,416.92 322.69,448.46 322.73,480.00 322.76,448.46 323.21,480.00 323.45,448.46 324.48,480.00 324.95,448.46 325.03,416.92 325.41,448.46 326.28,416.92 326.52,448.46 327.26,480.00 328.30,448.46 328.56,480.00 328.81,448.46 329.00,416.92 329.35,448.46 329.87,416.92 329.89,448.46 330.34,480.00 331.66,448.46 332.19,416.92 332.45,448.46 332.68,416.92 333.48,385.38 333.84,416.92 334.37,385.38 334.76,353.85 334.86,385.38 335.12,416.92 335.17,448.46 335.38,416.92 335.74,385.38 336.02,353.85 336.58,385.38 336.62,353.85 336.79,385.38 337.17,353.85 337.83,322.31 338.16,290.77 338.21,322.31 339.25,290.77 340.40,259.23 340.54,290.77 340.55,259.23 340.74,290.77 340.84,322.31 340.89,353.85 341.09,385.38 341.09,353.85 341.22,322.31 341.67,353.85 341.92,385.38 342.35,353.85 342.45,322.31 342.81,353.85 343.08,385.38 344.01,416.92 344.16,448.46 344.40,480.00 344.79,448.46 345.48,416.92 345.57,448.46 346.84,416.92 346.92,448.46 346.93,416.92 347.07,448.46 347.25,480.00 347.32,448.46 347.48,480.00 349.06,448.46 349.17,416.92 349.19,448.46 349.23,480.00 349.70,448.46 349.70,480.00 351.37,448.46 351.46,480.00 351.84,448.46 352.70,480.00 353.71,448.46 353.98,480.00 353.99,448.46 354.42,416.92 354.76,448.46 354.85,416.92 355.40,385.38 357.02,353.85 357.29,322.31 357.30,353.85 357.34,385.38 357.57,353.85 357.70,385.38 357.71,416.92 357.75,448.46 357.79,480.00 358.15,448.46 358.39,480.00 359.03,448.46 359.14,416.92 359.72,385.38 360.32,353.85 360.33,385.38 360.35,353.85 360.58,385.38 361.37,416.92 362.37,448.46 362.82,416.92 363.22,385.38 363.28,416.92 363.40,385.38 363.71,353.85 363.98,385.38 363.98,416.92 364.16,448.46 364.54,480.00 365.75,448.46 366.20,416.92 366.50,448.46 366.54,480.00 367.00,448.46 367.15,480.00 367.87,448.46 367.88,416.92 368.21,448.46 368.37,480.00 369.14,448.46 369.15,416.92 369.42,448.46 369.57,416.92 370.09,448.46 370.54,416.92 371.42,385.38 371.43,416.92 372.07,448.46 372.22,480.00 373.18,448.46 373.51,416.92 374.08,448.46 374.11,416.92 374.29,385.38 375.37,353.85 375.57,322.31 375.77,290.77 375.83,259.23 376.67,227.69 377.00,259.23 377.84,290.77 378.16,322.31 378.24,353.85 378.48,322.31 378.96,353.85 379.39,322.31 379.40,290.77 379.82,259.23 380.17,290.77 380.85,322.31 381.14,290.77 381.33,259.23 381.43,290.77 381.99,322.31 382.09,290.77 382.41,322.31 382.56,290.77 382.70,322.31 383.31,353.85 383.67,385.38 383.87,416.92 384.27,448.46 384.47,416.92 384.72,448.46 385.62,416.92 386.72,385.38 386.78,416.92 386.92,448.46 386.97,480.00 387.66,448.46 387.80,480.00 388.60,448.46 388.80,480.00 389.79,448.46 389.91,416.92 389.93,448.46 390.39,416.92 390.49,448.46 390.61,480.00 393.83,448.46 394.08,480.00 394.33,448.46 395.16,416.92 395.38,448.46 395.52,480.00 397.07,448.46 397.49,480.00 398.35,448.46 398.51,480.00 400.63,448.46 400.65,480.00 402.35,448.46 403.48,416.92 403.68,385.38 404.63,353.85 405.44,322.31 405.82,290.77 406.00,322.31 406.70,353.85 406.90,385.38 407.12,416.92 407.32,385.38 407.39,416.92 408.02,448.46 408.15,480.00 408.23,448.46 408.30,480.00 408.49,448.46 409.38,416.92 409.41,385.38 409.79,416.92 410.57,448.46 410.64,480.00 410.70,448.46 410.78,480.00 411.08,448.46 411.11,416.92 411.42,448.46 412.08,416.92 412.09,448.46 412.14,480.00 414.11,448.46 414.30,480.00 414.55,448.46 414.60,416.92 414.61,448.46 415.12,480.00 415.46,448.46 416.24,480.00 417.92,448.46 417.98,416.92 418.12,448.46 418.15,416.92 419.03,448.46 419.46,480.00 419.82,448.46 420.10,480.00 420.86,448.46 420.96,480.00 422.38,448.46 422.65,480.00 422.91,448.46 422.98,416.92 423.45,448.46 424.23,416.92 424.42,385.38 425.90,353.85 426.46,385.38 426.55,353.85 426.84,322.31 427.47,290.77 427.66,259.23 428.04,227.69 428.07,259.23 428.24,290.77 428.32,259.23 428.77,227.69 428.92,196.15 428.98,227.69 429.76,259.23 429.81,227.69 430.10,196.15 430.14,227.69 431.15,259.23 431.51,227.69 431.66,196.15 431.73,164.62 431.81,196.15 431.91,227.69 432.40,259.23 432.42,227.69 432.47,259.23 432.94,290.77 433.07,322.31 433.36,353.85 433.95,385.38 434.24,416.92 434.36,385.38 434.42,416.92 434.72,448.46 435.63,480.00 435.96,448.46 436.64,416.92 437.37,385.38 437.43,416.92 437.61,448.46 437.81,416.92 438.04,385.38 438.10,353.85 438.39,322.31 438.98,353.85 439.12,385.38 439.30,416.92 439.33,448.46 439.46,480.00 439.70,448.46 439.79,416.92 440.20,385.38 440.55,416.92 440.61,385.38 440.62,353.85 441.29,322.31 442.38,353.85 442.82,322.31 444.14,353.85 444.43,385.38 444.82,353.85 445.76,385.38 446.03,416.92 446.10,385.38 446.23,416.92 446.66,448.46 447.20,416.92 447.51,448.46 448.13,416.92 448.39,385.38 448.96,416.92 448.97,448.46 449.42,480.00 449.56,448.46 449.98,480.00 450.31,448.46 450.69,480.00 450.84,448.46 451.15,480.00 451.83,448.46 451.96,480.00 452.31,448.46 453.32,480.00 453.42,448.46 453.58,480.00 454.54,448.46 454.90,480.00 455.02,448.46 455.89,480.00 457.14,448.46 457.65,480.00 458.12,448.46 458.44,480.00 458.48,448.46 458.51,480.00 459.18,448.46 459.30,480.00 459.84,448.46 459.87,480.00 462.01,448.46 462.17,416.92 462.39,385.38 462.43,416.92 462.45,385.38 462.50,353.85 463.22,385.38 463.55,416.92 464.04,448.46 465.01,416.92 465.06,385.38 465.35,416.92 465.50,448.46 465.58,416.92 465.79,385.38 465.90,416.92 466.07,448.46 466.14,416.92 466.50,448.46 466.61,480.00 467.78,448.46 468.22,416.92 468.44,448.46 468.45,416.92 468.50,448.46 468.58,416.92 468.68,385.38 469.14,353.85 469.31,322.31 469.76,290.77 469.78,322.31 469.80,290.77 469.81,322.31 469.90,353.85 470.92,385.38 470.96,353.85 471.22,385.38 471.31,416.92 471.71,448.46 471.97,480.00 473.21,448.46 473.28,416.92 473.47,448.46 473.72,480.00 473.96,448.46 474.41,480.00 474.50,448.46 475.05,416.92 475.76,385.38 476.47,416.92 476.67,448.46 477.25,416.92 477.49,448.46 477.86,480.00 479.61,448.46 480.09,416.92 480.28,385.38 480.44,416.92 480.69,385.38 480.88,416.92 481.80,385.38 481.83,416.92 482.14,385.38 482.24,416.92 482.56,448.46 482.61,480.00 483.73,448.46 484.67,416.92 484.95,385.38 485.23,353.85 485.75,385.38 486.61,353.85 486.69,385.38 486.72,353.85 486.99,322.31 487.36,290.77 487.45,259.23 488.07,290.77 488.43,322.31 488.95,353.85 489.56,322.31 490.57,353.85 490.60,322.31 490.91,290.77 490.93,322.31 491.18,353.85 491.40,385.38 492.55,416.92 492.77,385.38 493.01,353.85 493.16,322.31 493.35,353.85 493.72,385.38 493.85,353.85 494.50,385.38 494.88,353.85 494.90,322.31 495.00,353.85 495.00,385.38 495.65,416.92 495.97,385.38 497.05,416.92 497.05,448.46 497.25,480.00 497.30,448.46 497.56,416.92 498.47,385.38 498.97,416.92 499.06,448.46 499.20,480.00 500.34,448.46 500.71,416.92 502.06,385.38 503.03,353.85 503.37,322.31 503.59,290.77 503.67,322.31 503.90,290.77 504.84,322.31 505.23,353.85 506.15,322.31 506.82,353.85 508.05,322.31 508.39,290.77 509.21,322.31 509.36,290.77 509.46,322.31 509.65,353.85 509.65,322.31 509.79,290.77 510.19,259.23 510.45,227.69 511.63,259.23 511.88,290.77 511.94,322.31 512.34,290.77 512.41,259.23 513.46,227.69 513.66,196.15 514.03,227.69 514.74,259.23 515.46,290.77 516.16,322.31 516.22,353.85 516.24,385.38 516.31,353.85 516.36,385.38 516.75,353.85 516.83,385.38 517.41,353.85 517.67,385.38 518.25,416.92 518.61,385.38 518.62,416.92 518.68,448.46 518.70,480.00 520.41,448.46 520.47,480.00 520.59,448.46 520.68,480.00 521.04,448.46 521.79,416.92 521.86,385.38 521.91,353.85 522.60,385.38 522.70,353.85 522.83,385.38 524.46,416.92 524.81,448.46 525.14,480.00 525.17,448.46 525.56,480.00 526.15,448.46 526.27,416.92 526.33,448.46 527.54,480.00 529.74,448.46 532.88,416.92 533.34,448.46 533.52,416.92 533.58,385.38 533.78,353.85 533.97,385.38 534.02,416.92 534.07,385.38 534.16,416.92 534.62,385.38 534.70,416.92 534.89,385.38 535.53,416.92 535.66,448.46 537.57,416.92 538.19,448.46 538.36,480.00 538.55,448.46 538.89,480.00 541.04,448.46 541.47,480.00 542.42,448.46 542.50,480.00 544.39,448.46 545.38,480.00 546.70,448.46 546.72,480.00 548.86,448.46 549.63,480.00 549.91,448.46 550.08,480.00 550.15,448.46 550.20,480.00 551.08,448.46 551.09,416.92 551.30,385.38 551.32,416.92 551.70,385.38 551.76,416.92 552.23,448.46 554.18,480.00 554.56,448.46 555.36,480.00 555.59,448.46 555.60,416.92 555.62,448.46 556.57,416.92 558.06,385.38 558.17,416.92 558.56,385.38 558.60,416.92 559.73,385.38 559.86,353.85 560.60,322.31 560.62,353.85 560.91,322.31 561.37,353.85 561.94,385.38 561.94,416.92 562.20,448.46 562.62,416.92 563.07,385.38 563.17,416.92 563.52,448.46 563.85,480.00 564.17,448.46 564.83,416.92 565.03,385.38 565.20,416.92 565.83,448.46 565.87,416.92 565.94,385.38 566.05,353.85 566.09,385.38 566.88,353.85 567.41,322.31 567.70,353.85 568.79,385.38 568.87,416.92 569.37,448.46 569.66,480.00 572.42,448.46 572.52,480.00 572.92,448.46 573.39,480.00 573.40,448.46 573.44,480.00 573.64,448.46 574.04,480.00 574.43,448.46 574.43,416.92 575.25,448.46 575.30,416.92 576.04,448.46 576.77,480.00 578.83,448.46 578.84,416.92 578.85,385.38 579.50,353.85 580.44,385.38 580.64,416.92 581.43,448.46 582.18,416.92 582.29,448.46 582.74,480.00 583.83,448.46 584.23,480.00 584.89,448.46 584.97,416.92 585.03,385.38 585.32,353.85 585.35,322.31 585.95,290.77 586.05,259.23 586.57,290.77 586.75,259.23 587.43,290.77 587.51,322.31 587.69,353.85 587.79,385.38 587.85,353.85 589.40,322.31 589.44,353.85 589.62,322.31 589.79,353.85 590.80,385.38 591.13,353.85 591.22,385.38 591.42,353.85 592.88,385.38 593.64,416.92 594.16,385.38 594.20,353.85 596.22,322.31 596.62,353.85 596.95,322.31 597.26,290.77 598.60,259.23 598.76,290.77 598.84,259.23 599.06,290.77 599.31,322.31 599.95,290.77 600.03,322.31 600.33,353.85 600.78,322.31 601.79,353.85 601.81,385.38 603.46,416.92 604.35,448.46 605.10,416.92 605.17,448.46 605.89,416.92 606.42,385.38 607.25,416.92 607.82,448.46 608.20,480.00 608.21,448.46 608.68,416.92 608.89,448.46 608.90,480.00 609.05,448.46 609.06,416.92 609.45,448.46 609.47,480.00 612.86,448.46 613.08,480.00 616.14,448.46 617.11,416.92 617.18,448.46 617.20,480.00 618.94,448.46 619.31,480.00 620.07,448.46 621.28,416.92 621.31,385.38 622.44,353.85 623.42,322.31 624.32,353.85 624.49,385.38 624.67,416.92 624.81,385.38 624.88,416.92 625.32,385.38 625.45,416.92 626.34,385.38 626.37,416.92 626.58,448.46 627.36,480.00 628.19,448.46 628.68,416.92 629.08,448.46 629.19,416.92 629.35,448.46 629.42,416.92 629.48,448.46 629.85,416.92 630.49,448.46 630.51,480.00 630.75,448.46 631.03,480.00 631.58,448.46 631.59,416.92 631.96,385.38 632.07,416.92 632.31,448.46 632.59,416.92 633.21,385.38 634.01,416.92 634.27,385.38 634.51,416.92 634.81,448.46 635.33,480.00 637.19,448.46 637.29,416.92 637.46,448.46 637.57,416.92 637.97,448.46 638.17,416.92 638.95,385.38 639.03,416.92 639.52,385.38 639.80,416.92 639.87,448.46 639.89,416.92 640.51,385.38 640.61,416.92 641.00,448.46 641.66,416.92 641.81,385.38 642.74,416.92 643.82,448.46 643.97,480.00 644.03,448.46 644.07,480.00 645.63,448.46 645.95,480.00 646.54,448.46 647.12,480.00 647.13,448.46 647.19,480.00 647.96,448.46 647.99,480.00 649.09,448.46 649.25,416.92 650.30,448.46 651.02,480.00 653.67,448.46 653.99,480.00 654.28,448.46 654.36,480.00 654.42,448.46 654.58,416.92 654.58,448.46 655.39,416.92 655.83,448.46 655.89,480.00 657.11,448.46 657.32,416.92 657.36,448.46 657.80,416.92 658.36,385.38 658.40,353.85 658.84,385.38 658.96,416.92 659.49,448.46 660.22,480.00 661.74,448.46 661.96,480.00 663.46,448.46 664.12,480.00 665.17,448.46 665.33,480.00 665.33,448.46 665.61,480.00 665.84,448.46 666.66,480.00 667.89,448.46 668.38,416.92 668.46,385.38 668.55,353.85 668.61,385.38 669.45,416.92 670.41,385.38 670.62,416.92 670.72,448.46 670.77,480.00 670.81,448.46 670.82,480.00 671.08,448.46 671.35,480.00 671.39,448.46 671.54,416.92 672.10,385.38 672.54,416.92 672.73,448.46 672.88,480.00 674.98,448.46 675.79,480.00 676.27,448.46 676.70,480.00 676.93,448.46 677.22,480.00 682.94,448.46 683.83,480.00 685.11,448.46 685.37,416.92 685.67,448.46 685.70,416.92 687.04,448.46 687.64,416.92 687.89,448.46 688.31,416.92 688.32,385.38 688.42,416.92 688.61,385.38 689.27,416.92 689.81,448.46 689.92,480.00 690.21,448.46 690.95,480.00 691.13,448.46 691.46,480.00 692.11,448.46 692.64,480.00 693.34,448.46 693.38,480.00 694.56,448.46 694.96,416.92 695.20,385.38 695.48,416.92 695.74,448.46 696.41,480.00 697.15,448.46 698.29,416.92 698.43,385.38 698.53,416.92 699.24,448.46 699.95,480.00 700.97,448.46 700.97,480.00 701.90,448.46 701.93,480.00 702.35,448.46 702.60,416.92 702.68,448.46 702.75,416.92 702.90,385.38 703.27,416.92 703.28,448.46 704.01,416.92 704.40,448.46 704.64,480.00 704.65,448.46 704.96,480.00 705.42,448.46 705.72,416.92 705.98,448.46 706.86,416.92 707.05,385.38 707.23,416.92 707.36,385.38 707.51,353.85 708.40,322.31 708.74,290.77 709.30,259.23 709.66,290.77 709.91,259.23 709.99,227.69 710.86,259.23 710.93,290.77 711.39,259.23 711.61,227.69 711.68,259.23 711.72,290.77 711.73,259.23 712.56,290.77 712.98,259.23 713.47,227.69 713.56,259.23 713.68,290.77 714.34,322.31 714.35,290.77 714.56,322.31 714.81,353.85 715.13,385.38 715.19,416.92 715.24,385.38 715.53,353.85 715.84,322.31 716.48,353.85 716.60,385.38 716.81,353.85 716.92,385.38 717.02,416.92 717.21,448.46 717.78,480.00 717.79,448.46 717.85,416.92 718.39,448.46 719.22,416.92 719.53,385.38 719.69,353.85 719.80,385.38 720.36,416.92 720.37,385.38 721.04,416.92 721.04,385.38 721.16,416.92 721.50,448.46 722.34,416.92 723.16,448.46 723.28,480.00 723.78,448.46 724.34,480.00 724.47,448.46 724.82,416.92 725.71,448.46 725.94,480.00 726.86,448.46 727.12,416.92 727.36,385.38 727.59,353.85 727.78,385.38 728.02,416.92 728.22,448.46 728.57,416.92 728.81,385.38 729.57,416.92 729.90,385.38 730.00,416.92" fill="none" stroke="#1f77b4" stroke-width="2.5"/>
<polyline points="86.00,480.00 87.68,480.00 87.69,480.00 87.78,480.00 87.86,448.46 87.95,416.92 88.43,385.38 88.54,353.85 88.73,385.38 89.77,353.85 89.82,385.38 89.88,416.92 90.85,385.38 91.22,416.92 91.50,448.46 91.59,480.00 91.70,448.46 92.15,480.00 92.35,448.46 92.68,416.92 93.84,448.46 94.74,480.00 94.79,480.00 94.88,480.00 94.91,480.00 96.19,480.00 96.53,480.00 96.96,480.00 97.33,448.46 97.72,480.00 97.76,448.46 97.99,480.00 98.49,480.00 98.61,480.00 98.92,480.00 99.07,480.00 99.61,480.00 100.06,480.00 100.26,448.46 101.18,480.00 101.49,480.00 102.82,480.00 103.45,480.00 103.67,480.00 103.69,480.00 104.35,480.00 104.77,448.46 105.17,416.92 105.67,385.38 106.42,353.85 108.08,385.38 108.55,416.92 108.85,385.38 108.94,353.85 109.04,385.38 109.41,416.92 109.44,448.46 109.53,480.00 111.41,480.00 113.50,480.00 114.45,448.46 115.26,480.00 116.10,480.00 116.76,480.00 117.14,448.46 117.69,480.00 118.25,480.00 118.94,480.00 119.78,448.46 119.92,416.92 120.19,385.38 120.28,353.85 120.45,385.38 120.49,353.85 120.55,385.38 121.35,353.85 121.45,322.31 122.04,353.85 122.20,385.38 123.45,416.92 123.49,448.46 123.72,480.00 123.84,480.00 124.88,480.00 125.68,480.00 126.00,480.00 126.03,480.00 126.85,480.00 126.87,480.00 128.28,480.00 128.43,448.46 128.58,480.00 128.81,448.46 128.99,480.00 129.47,480.00 130.06,480.00 130.50,448.46 130.55,416.92 130.78,448.46 131.00,480.00 131.03,480.00 131.06,480.00 131.11,480.00 136.28,480.00 136.53,480.00 136.69,480.00 136.73,480.00 137.22,480.00 137.68,448.46 138.42,416.92 138.75,385.38 138.90,416.92 139.32,385.38 139.42,353.85 139.98,322.31 140.14,353.85 140.24,385.38 140.46,416.92 140.63,385.38 140.81,416.92 140.92,448.46 141.65,480.00 141.82,480.00 141.92,480.00 142.55,480.00 142.86,480.00 143.88,480.00 143.98,480.00 144.21,448.46 145.47,480.00 145.87,448.46 146.44,416.92 146.52,448.46 147.30,416.92 147.84,448.46 148.50,480.00 149.06,448.46 149.20,480.00 150.23,480.00 150.32,480.00 150.36,448.46 150.44,416.92 150.57,448.46 150.72,480.00 151.34,480.00 153.73,480.00 154.34,480.00 154.54,480.00 155.50,480.00 156.98,480.00 157.16,448.46 157.79,480.00 157.91,480.00 158.08,480.00 158.39,448.46 158.70,480.00 158.80,448.46 159.29,416.92 159.35,448.46 159.49,416.92 160.05,448.46 160.34,480.00 160.93,480.00 161.98,480.00 162.21,480.00 163.22,480.00 163.85,448.46 164.85,480.00 165.17,448.46 165.60,416.92 166.10,385.38 166.61,353.85 166.89,322.31 166.93,290.77 167.37,259.23 167.60,290.77 168.25,322.31 169.33,353.85 170.00,322.31 170.50,353.85 171.28,322.31 171.53,290.77 171.76,259.23 171.82,290.77 171.87,259.23 171.97,290.77 172.73,259.23 172.82,227.69 172.93,259.23 173.37,227.69 173.65,196.15 173.74,164.62 173.77,133.08 174.21,101.54 174.26,133.08 175.24,164.62 176.13,196.15 176.18,227.69 177.21,259.23 177.53,290.77 177.69,322.31 177.94,353.85 178.16,385.38 178.18,353.85 178.21,322.31 178.22,290.77 178.58,259.23 178.74,290.77 178.78,322.31 179.42,290.77 180.10,259.23 180.84,290.77 181.21,322.31 182.59,353.85 182.70,385.38 182.83,353.85 182.94,322.31 182.99,290.77 183.93,322.31 183.93,290.77 184.11,259.23 184.74,290.77 185.37,322.31 187.22,353.85 187.36,385.38 187.49,416.92 187.60,448.46 188.08,416.92 188.51,448.46 188.90,480.00 188.90,480.00 189.12,480.00 189.14,480.00 189.96,480.00 190.09,448.46 190.30,416.92 190.33,385.38 190.34,353.85 190.47,385.38 190.75,353.85 191.10,385.38 191.79,353.85 192.57,385.38 193.12,416.92 193.79,385.38 194.07,416.92 194.42,385.38 194.46,353.85 194.63,385.38 194.84,416.92 196.01,385.38 196.41,353.85 196.47,322.31 196.98,353.85 197.28,322.31 197.31,290.77 198.31,322.31 198.94,353.85 199.22,385.38 199.49,353.85 200.21,385.38 200.23,416.92 200.28,385.38 200.57,416.92 201.17,385.38 201.30,353.85 202.71,385.38 202.72,353.85 206.20,385.38 207.32,353.85 207.49,385.38 207.99,353.85 208.34,385.38 208.37,353.85 208.65,385.38 208.89,353.85 208.95,385.38 209.30,416.92 210.15,448.46 210.16,416.92 211.22,448.46 211.34,416.92 211.54,448.46 211.63,480.00 212.56,448.46 213.06,480.00 213.19,448.46 213.46,416.92 213.70,448.46 214.33,480.00 216.46,448.46 216.47,416.92 216.89,448.46 216.97,480.00 217.00,480.00 217.12,480.00 218.26,448.46 218.67,480.00 219.41,480.00 219.82,480.00 220.34,480.00 222.22,480.00 222.29,480.00 222.85,480.00 222.95,448.46 223.00,480.00 223.50,480.00 226.48,480.00 227.07,480.00 228.99,480.00 229.07,480.00 230.15,480.00 230.43,448.46 231.40,416.92 231.80,448.46 232.00,480.00 232.24,480.00 233.92,480.00 234.13,480.00 234.25,480.00 234.32,448.46 234.84,480.00 235.72,448.46 236.00,480.00 236.32,480.00 240.47,480.00 240.58,448.46 240.71,480.00 240.72,480.00 243.27,480.00 243.42,480.00 243.93,480.00 244.25,480.00 245.35,480.00 246.29,480.00 248.50,480.00 248.51,448.46 248.84,416.92 249.11,385.38 249.13,416.92 249.36,448.46 249.36,480.00 249.78,448.46 249.85,480.00 250.34,448.46 250.49,416.92 250.54,448.46 251.28,480.00 251.80,480.00 252.86,480.00 253.13,480.00 253.57,480.00 253.89,480.00 254.34,480.00 254.39,480.00 254.57,480.00 254.70,448.46 254.76,480.00 256.53,480.00 257.60,480.00 258.89,448.46 258.96,416.92 259.70,448.46 259.77,480.00 260.16,480.00 260.61,480.00 261.02,480.00 261.61,480.00 261.67,480.00 263.30,480.00 264.00,448.46 265.18,480.00 265.23,448.46 265.47,480.00 265.48,480.00 265.76,480.00 265.92,480.00 266.01,480.00 266.15,480.00 267.97,480.00 268.56,480.00 268.92,480.00 268.98,480.00 269.79,480.00 270.13,480.00 270.21,480.00 270.67,448.46 270.70,416.92 270.75,385.38 270.95,416.92 271.66,385.38 272.15,416.92 272.76,448.46 272.99,416.92 273.46,448.46 273.49,480.00 273.62,480.00 274.15,480.00 274.42,480.00 275.66,480.00 276.44,448.46 276.62,480.00 276.66,448.46 278.01,480.00 278.14,480.00 278.64,480.00 279.17,480.00 280.51,480.00 281.18,480.00 281.60,480.00 281.82,448.46 282.29,480.00 282.55,480.00 283.88,480.00 284.00,480.00 285.84,480.00 286.12,480.00 286.34,480.00 287.40,480.00 289.00,480.00 289.01,480.00 290.69,480.00 290.69,480.00 292.12,480.00 292.38,448.46 293.64,416.92 294.40,448.46 294.56,480.00 294.64,448.46 294.98,480.00 295.00,480.00 296.06,480.00 296.43,480.00 296.81,480.00 296.82,480.00 297.13,480.00 297.99,480.00 298.17,480.00 298.57,480.00 298.79,480.00 298.92,480.00 298.98,480.00 299.30,480.00 299.33,480.00 299.50,448.46 299.56,416.92 300.17,385.38 300.63,353.85 301.37,322.31 302.21,353.85 302.53,322.31 302.84,353.85 302.88,322.31 303.14,290.77 303.45,322.31 303.62,290.77 303.63,259.23 303.72,227.69 303.96,196.15 304.25,227.69 304.51,196.15 304.66,164.62 304.67,196.15 304.69,164.62 304.81,133.08 305.79,101.54 306.14,133.08 306.28,101.54 306.32,133.08 306.36,164.62 306.71,133.08 306.98,164.62 307.11,196.15 307.20,227.69 308.51,259.23 308.77,227.69 308.93,196.15 309.04,227.69 309.05,259.23 309.10,227.69 309.33,196.15 310.06,227.69 310.50,259.23 311.05,290.77 311.14,322.31 311.57,290.77 312.08,259.23 312.19,290.77 312.78,322.31 312.99,290.77 313.84,259.23 314.10,290.77 314.19,259.23 314.58,290.77 314.99,322.31 315.80,290.77 316.16,322.31 317.19,353.85 318.35,385.38 318.48,416.92 318.52,448.46 319.23,416.92 319.48,448.46 319.85,416.92 320.21,448.46 320.57,480.00 321.19,480.00 321.98,480.00 322.58,448.46 322.69,480.00 322.73,480.00 322.76,480.00 323.21,480.00 323.45,480.00 324.48,480.00 324.95,480.00 325.03,448.46 325.41,480.00 326.28,448.46 326.52,480.00 327.26,480.00 328.30,480.00 328.56,480.00 328.81,480.00 329.00,448.46 329.35,480.00 329.87,448.46 329.89,480.00 330.34,480.00 331.66,480.00 332.19,448.46 332.45,480.00 332.68,448.46 333.48,416.92 333.84,448.46 334.37,416.92 334.76,385.38 334.86,416.92 335.12,448.46 335.17,480.00 335.38,448.46 335.74,416.92 336.02,385.38 336.58,416.92 336.62,385.38 336.79,416.92 337.17,385.38 337.83,353.85 338.16,322.31 338.21,353.85 339.25,322.31 340.40,290.77 340.54,322.31 340.55,290.77 340.74,322.31 340.84,353.85 340.89,385.38 341.09,416.92 341.09,385.38 341.22,353.85 341.67,385.38 341.92,416.92 342.35,385.38 342.45,353.85 342.81,385.38 343.08,416.92 344.01,448.46 344.16,480.00 344.40,480.00 344.79,480.00 345.48,448.46 345.57,480.00 346.84,448.46 346.92,480.00 346.93,448.46 347.07,480.00 347.25,480.00 347.32,480.00 347.48,480.00 349.06,480.00 349.17,448.46 349.19,480.00 349.23,480.00 349.70,480.00 349.70,480.00 351.37,480.00 351.46,480.00 351.84,480.00 352.70,480.00 353.71,480.00 353.98,480.00 353.99,480.00 354.42,448.46 354.76,480.00 354.85,448.46 355.40,416.92 357.02,385.38 357.29,353.85 357.30,385.38 357.34,416.92 357.57,385.38 357.70,416.92 357.71,448.46 357.75,480.00 357.79,480.00 358.15,480.00 358.39,480.00 359.03,480.00 359.14,448.46 359.72,416.92 360.32,385.38 360.33,416.92 360.35,385.38 360.58,416.92 361.37,448.46 362.37,480.00 362.82,448.46 363.22,416.92 363.28,448.46 363.40,416.92 363.71,385.38 363.98,416.92 363.98,448.46 364.16,480.00 364.54,480.00 365.75,480.00 366.20,448.46 366.50,480.00 366.54,480.00 367.00,480.00 367.15,480.00 367.87,480.00 367.88,448.46 368.21,480.00 368.37,480.00 369.14,480.00 369.15,448.46 369.42,480.00 369.57,448.46 370.09,480.00 370.54,448.46 371.42,416.92 371.43,448.46 372.07,480.00 372.22,480.00 373.18,480.00 373.51,448.46 374.08,480.00 374.11,448.46 374.29,416.92 375.37,385.38 375.57,353.85 375.77,322.31 375.83,290.77 376.67,259.23 377.00,290.77 377.84,322.31 378.16,353.85 378.24,385.38 378.48,353.85 378.96,385.38 379.39,353.85 379.40,322.31 379.82,290.77 380.17,322.31 380.85,353.85 381.14,322.31 381.33,290.77 381.43,322.31 381.99,353.85 382.09,322.31 382.41,353.85 382.56,322.31 382.70,353.85 383.31,385.38 383.67,416.92 383.87,448.46 384.27,480.00 384.47,448.46 384.72,480.00 385.62,448.46 386.72,416.92 386.78,448.46 386.92,480.00 386.97,480.00 387.66,480.00 387.80,480.00 388.60,480.00 388.80,480.00 389.79,480.00 389.91,448.46 389.93,480.00 390.39,448.46 390.49,480.00 390.61,480.00 393.83,480.00 394.08,480.00 394.33,480.00 395.16,448.46 395.38,480.00 395.52,480.00 397.07,480.00 397.49,480.00 398.35,480.00 398.51,480.00 400.63,480.00 400.65,480.00 402.35,480.00 403.48,448.46 403.68,416.92 404.63,385.38 405.44,353.85 405.82,322.31 406.00,353.85 406.70,385.38 406.90,416.92 407.12,448.46 407.32,416.92 407.39,448.46 408.02,480.00 408.15,480.00 408.23,480.00 408.30,480.00 408.49,480.00 409.38,448.46 409.41,416.92 409.79,448.46 410.57,480.00 410.64,480.00 410.70,480.00 410.78,480.00 411.08,480.00 411.11,448.46 411.42,480.00 412.08,448.46 412.09,480.00 412.14,480.00 414.11,480.00 414.30,480.00 414.55,480.00 414.60,448.46 414.61,480.00 415.12,480.00 415.46,480.00 416.24,480.00 417.92,480.00 417.98,448.46 418.12,480.00 418.15,448.46 419.03,480.00 419.46,480.00 419.82,480.00 420.10,480.00 420.86,480.00 420.96,480.00 422.38,480.00 422.65,480.00 422.91,480.00 422.98,448.46 423.45,480.00 424.23,448.46 424.42,416.92 425.90,385.38 426.46,416.92 426.55,385.38 426.84,353.85 427.47,322.31 427.66,290.77 428.04,259.23 428.07,290.77 428.24,322.31 428.32,290.77 428.77,259.23 428.92,227.69 428.98,259.23 429.76,290.77 429.81,259.23 430.10,227.69 430.14,259.23 431.15,290.77 431.51,259.23 431.66,227.69 431.73,196.15 431.81,227.69 431.91,259.23 432.40,290.77 432.42,259.23 432.47,290.77 432.94,322.31 433.07,353.85 433.36,385.38 433.95,416.92 434.24,448.46 434.36,416.92 434.42,448.46 434.72,480.00 435.63,480.00 435.96,480.00 436.64,448.46 437.37,416.92 437.43,448.46 437.61,480.00 437.81,448.46 438.04,416.92 438.10,385.38 438.39,353.85 438.98,385.38 439.12,416.92 439.30,448.46 439.33,480.00 439.46,480.00 439.70,480.00 439.79,448.46 440.20,416.92 440.55,448.46 440.61,416.92 440.62,385.38 441.29,353.85 442.38,385.38 442.82,353.85 444.14,385.38 444.43,416.92 444.82,385.38 445.76,416.92 446.03,448.46 446.10,416.92 446.23,448.46 446.66,480.00 447.20,448.46 447.51,480.00 448.13,448.46 448.39,416.92 448.96,448.46 448.97,480.00 449.42,480.00 449.56,480.00 449.98,480.00 450.31,480.00 450.69,480.00 450.84,480.00 451.15,480.00 451.83,480.00 451.96,480.00 452.31,480.00 453.32,480.00 453.42,480.00 453.58,480.00 454.54,480.00 454.90,480.00 455.02,480.00 455.89,480.00 457.14,480.00 457.65,480.00 458.12,480.00 458.44,480.00 458.48,480.00 458.51,480.00 459.18,480.00 459.30,480.00 459.84,480.00 459.87,480.00 462.01,480.00 462.17,448.46 462.39,416.92 462.43,448.46 462.45,416.92 462.50,385.38 463.22,416.92 463.55,448.46 464.04,480.00 465.01,448.46 465.06,416.92 465.35,448.46 465.50,480.00 465.58,448.46 465.79,416.92 465.90,448.46 466.07,480.00 466.14,448.46 466.50,480.00 466.61,480.00 467.78,480.00 468.22,448.46 468.44,480.00 468.45,448.46 468.50,480.00 468.58,448.46 468.68,416.92 469.14,385.38 469.31,353.85 469.76,322.31 469.78,353.85 469.80,322.31 469.81,353.85 469.90,385.38 470.92,416.92 470.96,385.38 471.22,416.92 471.31,448.46 471.71,480.00 471.97,480.00 473.21,480.00 473.28,448.46 473.47,480.00 473.72,480.00 473.96,480.00 474.41,480.00 474.50,480.00 475.05,448.46 475.76,416.92 476.47,448.46 476.67,480.00 477.25,448.46 477.49,480.00 477.86,480.00 479.61,480.00 480.09,448.46 480.28,416.92 480.44,448.46 480.69,416.92 480.88,448.46 481.80,416.92 481.83,448.46 482.14,416.92 482.24,448.46 482.56,480.00 482.61,480.00 483.73,480.00 484.67,448.46 484.95,416.92 485.23,385.38 485.75,416.92 486.61,385.38 486.69,416.92 486.72,385.38 486.99,353.85 487.36,322.31 487.45,290.77 488.07,322.31 488.43,353.85 488.95,385.38 489.56,353.85 490.57,385.38 490.60,353.85 490.91,322.31 490.93,353.85 491.18,385.38 491.40,416.92 492.55,448.46 492.77,416.92 493.01,385.38 493.16,353.85 493.35,385.38 493.72,416.92 493.85,385.38 494.50,416.92 494.88,385.38 494.90,353.85 495.00,385.38 495.00,416.92 495.65,448.46 495.97,416.92 497.05,448.46 497.05,480.00 497.25,480.00 497.30,480.00 497.56,448.46 498.47,416.92 498.97,448.46 499.06,480.00 499.20,480.00 500.34,480.00 500.71,448.46 502.06,416.92 503.03,385.38 503.37,353.85 503.59,322.31 503.67,353.85 503.90,322.31 504.84,353.85 505.23,385.38 506.15,353.85 506.82,385.38 508.05,353.85 508.39,322.31 509.21,353.85 509.36,322.31 509.46,353.85 509.65,385.38 509.65,353.85 509.79,322.31 510.19,290.77 510.45,259.23 511.63,290.77 511.88,322.31 511.94,353.85 512.34,322.31 512.41,290.77 513.46,259.23 513.66,227.69 514.03,259.23 514.74,290.77 515.46,322.31 516.16,353.85 516.22,385.38 516.24,416.92 516.31,385.38 516.36,416.92 516.75,385.38 516.83,416.92 517.41,385.38 517.67,416.92 518.25,448.46 518.61,416.92 518.62,448.46 518.68,480.00 518.70,480.00 520.41,480.00 520.47,480.00 520.59,480.00 520.68,480.00 521.04,480.00 521.79,448.46 521.86,416.92 521.91,385.38 522.60,416.92 522.70,385.38 522.83,416.92 524.46,448.46 524.81,480.00 525.14,480.00 525.17,480.00 525.56,480.00 526.15,480.00 526.27,448.46 526.33,480.00 527.54,480.00 529.74,480.00 532.88,448.46 533.34,480.00 533.52,448.46 533.58,416.92 533.78,385.38 533.97,416.92 534.02,448.46 534.07,416.92 534.16,448.46 534.62,416.92 534.70,448.46 534.89,416.92 535.53,448.46 535.66,480.00 537.57,448.46 538.19,480.00 538.36,480.00 538.55,480.00 538.89,480.00 541.04,480.00 541.47,480.00 542.42,480.00 542.50,480.00 544.39,480.00 545.38,480.00 546.70,480.00 546.72,480.00 548.86,480.00 549.63,480.00 549.91,480.00 550.08,480.00 550.15,480.00 550.20,480.00 551.08,480.00 551.09,448.46 551.30,416.92 551.32,448.46 551.70,416.92 551.76,448.46 552.23,480.00 554.18,480.00 554.56,480.00 555.36,480.00 555.59,480.00 555.60,448.46 555.62,480.00 556.57,448.46 558.06,416.92 558.17,448.46 558.56,416.92 558.60,448.46 559.73,416.92 559.86,385.38 560.60,353.85 560.62,385.38 560.91,353.85 561.37,385.38 561.94,416.92 561.94,448.46 562.20,480.00 562.62,448.46 563.07,416.92 563.17,448.46 563.52,480.00 563.85,480.00 564.17,480.00 564.83,448.46 565.03,416.92 565.20,448.46 565.83,480.00 565.87,448.46 565.94,416.92 566.05,385.38 566.09,416.92 566.88,385.38 567.41,353.85 567.70,385.38 568.79,416.92 568.87,448.46 569.37,480.00 569.66,480.00 572.42,480.00 572.52,480.00 572.92,480.00 573.39,480.00 573.40,480.00 573.44,480.00 573.64,480.00 574.04,480.00 574.43,480.00 574.43,448.46 575.25,480.00 575.30,448.46 576.04,480.00 576.77,480.00 578.83,480.00 578.84,448.46 578.85,416.92 579.50,385.38 580.44,416.92 580.64,448.46 581.43,480.00 582.18,448.46 582.29,480.00 582.74,480.00 583.83,480.00 584.23,480.00 584.89,480.00 584.97,448.46 585.03,416.92 585.32,385.38 585.35,353.85 585.95,322.31 586.05,290.77 586.57,322.31 586.75,290.77 587.43,322.31 587.51,353.85 587.69,385.38 587.79,416.92 587.85,385.38 589.40,353.85 589.44,385.38 589.62,353.85 589.79,385.38 590.80,416.92 591.13,385.38 591.22,416.92 591.42,385.38 592.88,416.92 593.64,448.46 594.16,416.92 594.20,385.38 596.22,353.85 596.62,385.38 596.95,353.85 597.26,322.31 598.60,290.77 598.76,322.31 598.84,290.77 599.06,322.31 599.31,353.85 599.95,322.31 600.03,353.85 600.33,385.38 600.78,353.85 601.79,385.38 601.81,416.92 603.46,448.46 604.35,480.00 605.10,448.46 605.17,480.00 605.89,448.46 606.42,416.92 607.25,448.46 607.82,480.00 608.20,480.00 608.21,480.00 608.68,448.46 608.89,480.00 608.90,480.00 609.05,480.00 609.06,448.46 609.45,480.00 609.47,480.00 612.86,480.00 613.08,480.00 616.14,480.00 617.11,448.46 617.18,480.00 617.20,480.00 618.94,480.00 619.31,480.00 620.07,480.00 621.28,448.46 621.31,416.92 622.44,385.38 623.42,353.85 624.32,385.38 624.49,416.92 624.67,448.46 624.81,416.92 624.88,448.46 625.32,416.92 625.45,448.46 626.34,416.92 626.37,448.46 626.58,480.00 627.36,480.00 628.19,480.00 628.68,448.46 629.08,480.00 629.19,448.46 629.35,480.00 629.42,448.46 629.48,480.00 629.85,448.46 630.49,480.00 630.51,480.00 630.75,480.00 631.03,480.00 631.58,480.00 631.59,448.46 631.96,416.92 632.07,448.46 632.31,480.00 632.59,448.46 633.21,416.92 634.01,448.46 634.27,416.92 634.51,448.46 634.81,480.00 635.33,480.00 637.19,480.00 637.29,448.46 637.46,480.00 637.57,448.46 637.97,480.00 638.17,448.46 638.95,416.92 639.03,448.46 639.52,416.92 639.80,448.46 639.87,480.00 639.89,448.46 640.51,416.92 640.61,448.46 641.00,480.00 641.66,448.46 641.81,416.92 642.74,448.46 643.82,480.00 643.97,480.00 644.03,480.00 644.07,480.00 645.63,480.00 645.95,480.00 646.54,480.00 647.12,480.00 647.13,480.00 647.19,480.00 647.96,480.00 647.99,480.00 649.09,480.00 649.25,448.46 650.30,480.00 651.02,480.00 653.67,480.00 653.99,480.00 654.28,480.00 654.36,480.00 654.42,480.00 654.58,448.46 654.58,480.00 655.39,448.46 655.83,480.00 655.89,480.00 657.11,480.00 657.32,448.46 657.36,480.00 657.80,448.46 658.36,416.92 658.40,385.38 658.84,416.92 658.96,448.46 659.49,480.00 660.22,480.00 661.74,480.00 661.96,480.00 663.46,480.00 664.12,480.00 665.17,480.00 665.33,480.00 665.33,480.00 665.61,480.00 665.84,480.00 666.66,480.00 667.89,480.00 668.38,448.46 668.46,416.92 668.55,385.38 668.61,416.92 669.45,448.46 670.41,416.92 670.62,448.46 670.72,480.00 670.77,480.00 670.81,480.00 670.82,480.00 671.08,480.00 671.35,480.00 671.39,480.00 671.54,448.46 672.10,416.92 672.54,448.46 672.73,480.00 672.88,480.00 674.98,480.00 675.79,480.00 676.27,480.00 676.70,480.00 676.93,480.00 677.22,480.00 682.94,480.00 683.83,480.00 685.11,480.00 685.37,448.46 685.67,480.00 685.70,448.46 687.04,480.00 687.64,448.46 687.89,480.00 688.31,448.46 688.32,416.92 688.42,448.46 688.61,416.92 689.27,448.46 689.81,480.00 689.92,480.00 690.21,480.00 690.95,480.00 691.13,480.00 691.46,480.00 692.11,480.00 692.64,480.00 693.34,480.00 693.38,480.00 694.56,480.00 694.96,448.46 695.20,416.92 695.48,448.46 695.74,480.00 696.41,480.00 697.15,480.00 698.29,448.46 698.43,416.92 698.53,448.46 699.24,480.00 699.95,480.00 700.97,480.00 700.97,480.00 701.90,480.00 701.93,480.00 702.35,480.00 702.60,448.46 702.68,480.00 702.75,448.46 702.90,416.92 703.27,448.46 703.28,480.00 704.01,448.46 704.40,480.00 704.64,480.00 704.65,480.00 704.96,480.00 705.42,480.00 705.72,448.46 705.98,480.00 706.86,448.46 707.05,416.92 707.23,448.46 707.36,416.92 707.51,385.38 708.40,353.85 708.74,322.31 709.30,290.77 709.66,322.31 709.91,290.77 709.99,259.23 710.86,290.77 710.93,322.31 711.39,290.77 711.61,259.23 711.68,290.77 711.72,322.31 711.73,290.77 712.56,322.31 712.98,290.77 713.47,259.23 713.56,290.77 713.68,322.31 714.34,353.85 714.35,322.31 714.56,353.85 714.81,385.38 715.13,416.92 715.19,448.46 715.24,416.92 715.53,385.38 715.84,353.85 716.48,385.38 716.60,416.92 716.81,385.38 716.92,416.92 717.02,448.46 717.21,480.00 717.78,480.00 717.79,480.00 717.85,448.46 718.39,480.00 719.22,448.46 719.53,416.92 719.69,385.38 719.80,416.92 720.36,448.46 720.37,416.92 721.04,448.46 721.04,416.92 721.16,448.46 721.50,480.00 722.34,448.46 723.16,480.00 723.28,480.00 723.78,480.00 724.34,480.00 724.47,480.00 724.82,448.46 725.71,480.00 725.94,480.00 726.86,480.00 727.12,448.46 727.36,416.92 727.59,385.38 727.78,416.92 728.02,448.46 728.22,480.00 728.57,448.46 728.81,416.92 729.57,448.46 729.90,416.92 730.00,448.46" fill="none" stroke="#d62728" stroke-width="2.5" stroke-dasharray="6 4"/>
<line x1="762" y1="78" x2="790" y2="78" stroke="#1f77b4" stroke-width="2.5"/>
<text x="800" y="82" font-family="Arial" font-size="13">Clientes en sistema</text>
<line x1="762" y1="102" x2="790" y2="102" stroke="#d62728" stroke-width="2.5" stroke-dasharray="6 4"/>
<text x="800" y="106" font-family="Arial" font-size="13">Clientes en cola</text>
</svg>
