<svg xmlns="http://www.w3.org/2000/svg" width="960" height="560" viewBox="0 0 960 560">
<rect width="100%" height="100%" fill="#ffffff"/>
<text x="480.0" y="32" text-anchor="middle" font-family="Arial" font-size="22" font-weight="700">M/M/1 cola infinita - Utilizacion del servidor</text>
<line x1="86" y1="480.00" x2="730" y2="480.00" stroke="#e6e6e6" stroke-width="1"/>
<text x="76" y="484.00" text-anchor="end" font-family="Arial" font-size="12">0</text>
<line x1="86" y1="398.00" x2="730" y2="398.00" stroke="#e6e6e6" stroke-width="1"/>
<text x="76" y="402.00" text-anchor="end" font-family="Arial" font-size="12">0.15</text>
<line x1="86" y1="316.00" x2="730" y2="316.00" stroke="#e6e6e6" stroke-width="1"/>
<text x="76" y="320.00" text-anchor="end" font-family="Arial" font-size="12">0.3</text>
<line x1="86" y1="234.00" x2="730" y2="234.00" stroke="#e6e6e6" stroke-width="1"/>
<text x="76" y="238.00" text-anchor="end" font-family="Arial" font-size="12">0.45</text>
<line x1="86" y1="152.00" x2="730" y2="152.00" stroke="#e6e6e6" stroke-width="1"/>
<text x="76" y="156.00" text-anchor="end" font-family="Arial" font-size="12">0.6</text>
<line x1="86" y1="70.00" x2="730" y2="70.00" stroke="#e6e6e6" stroke-width="1"/>
<text x="76" y="74.00" text-anchor="end" font-family="Arial" font-size="12">0.75</text>
<line x1="86" y1="480" x2="730" y2="480" stroke="#222" stroke-width="1.5"/>
<line x1="86" y1="70" x2="86" y2="480" stroke="#222" stroke-width="1.5"/>
<text x="86.00" y="504" text-anchor="middle" font-family="Arial" font-size="12">0.25</text>
<text x="408.00" y="504" text-anchor="middle" font-family="Arial" font-size="12">0.5</text>
<text x="730.00" y="504" text-anchor="middle" font-family="Arial" font-size="12">0.75</text>
<text x="408.0" y="536" text-anchor="middle" font-family="Arial" font-size="14">rho</text>
<text x="26" y="275.0" text-anchor="middle" font-family="Arial" font-size="14" transform="rotate(-90 26 275.0)">Utilizacion del servidor</text>
<polyline points="86.00,343.16 408.00,205.82 730.00,70.01" fill="none" stroke="#1f77b4" stroke-width="2.5"/>
<circle cx="86.00" cy="343.16" r="4" fill="#1f77b4" stroke="#fff" stroke-width="1"/>
<circle cx="408.00" cy="205.82" r="4" fill="#1f77b4" stroke="#fff" stroke-width="1"/>
<circle cx="730.00" cy="70.01" r="4" fill="#1f77b4" stroke="#fff" stroke-width="1"/>
<polyline points="86.00,343.33 408.00,206.67 730.00,70.00" fill="none" stroke="#d62728" stroke-width="2.5" stroke-dasharray="6 4"/>
<circle cx="86.00" cy="343.33" r="4" fill="#d62728" stroke="#fff" stroke-width="1"/>
<circle cx="408.00" cy="206.67" r="4" fill="#d62728" stroke="#fff" stroke-width="1"/>
<circle cx="730.00" cy="70.00" r="4" fill="#d62728" stroke="#fff" stroke-width="1"/>
<line x1="762" y1="78" x2="790" y2="78" stroke="#1f77b4" stroke-width="2.5"/>
<text x="800" y="82" font-family="Arial" font-size="13">Media simulada</text>
<line x1="762" y1="102" x2="790" y2="102" stroke="#d62728" stroke-width="2.5" stroke-dasharray="6 4"/>
<text x="800" y="106" font-family="Arial" font-size="13">Teoria</text>
</svg>
