<svg xmlns="http://www.w3.org/2000/svg" width="960" height="560" viewBox="0 0 960 560">
<rect width="100%" height="100%" fill="#ffffff"/>
<text x="480.0" y="32" text-anchor="middle" font-family="Arial" font-size="22" font-weight="700">Costo total acumulado promedio por politica</text>
<line x1="86" y1="472.00" x2="740" y2="472.00" stroke="#e6e6e6" stroke-width="1"/>
<text x="76" y="476.00" text-anchor="end" font-family="Arial" font-size="12">0</text>
<line x1="86" y1="391.60" x2="740" y2="391.60" stroke="#e6e6e6" stroke-width="1"/>
<text x="76" y="395.60" text-anchor="end" font-family="Arial" font-size="12">4.37e+03</text>
<line x1="86" y1="311.20" x2="740" y2="311.20" stroke="#e6e6e6" stroke-width="1"/>
<text x="76" y="315.20" text-anchor="end" font-family="Arial" font-size="12">8.74e+03</text>
<line x1="86" y1="230.80" x2="740" y2="230.80" stroke="#e6e6e6" stroke-width="1"/>
<text x="76" y="234.80" text-anchor="end" font-family="Arial" font-size="12">1.31e+04</text>
<line x1="86" y1="150.40" x2="740" y2="150.40" stroke="#e6e6e6" stroke-width="1"/>
<text x="76" y="154.40" text-anchor="end" font-family="Arial" font-size="12">1.75e+04</text>
<line x1="86" y1="70.00" x2="740" y2="70.00" stroke="#e6e6e6" stroke-width="1"/>
<text x="76" y="74.00" text-anchor="end" font-family="Arial" font-size="12">2.19e+04</text>
<line x1="86" y1="472" x2="740" y2="472" stroke="#222" stroke-width="1.5"/>
<line x1="86" y1="70" x2="86" y2="472" stroke="#222" stroke-width="1.5"/>
<text x="86.00" y="497" text-anchor="middle" font-family="Arial" font-size="12">1</text>
<text x="249.50" y="497" text-anchor="middle" font-family="Arial" font-size="12">92</text>
<text x="413.00" y="497" text-anchor="middle" font-family="Arial" font-size="12">183</text>
<text x="576.50" y="497" text-anchor="middle" font-family="Arial" font-size="12">274</text>
<text x="740.00" y="497" text-anchor="middle" font-family="Arial" font-size="12">365</text>
<text x="413.0" y="535" text-anchor="middle" font-family="Arial" font-size="14">Dia</text>
<text x="26" y="271.0" text-anchor="middle" font-family="Arial" font-size="14" transform="rotate(-90 26 271.0)">Costo acumulado</text>
<polyline points="86.00,471.35 87.80,470.82 89.59,470.42 91.39,468.82 93.19,467.78 94.98,467.65 96.78,466.56 98.58,465.16 100.37,464.09 102.17,463.48 103.97,462.99 105.76,461.88 107.56,460.56 109.36,459.84 111.15,459.31 112.95,458.42 114.75,457.70 116.54,456.11 118.34,455.91 120.14,454.57 121.93,454.03 123.73,452.69 125.53,451.97 127.32,450.91 129.12,450.01 130.92,448.68 132.71,448.12 134.51,447.59 136.31,446.66 138.10,445.66 139.90,444.64 141.70,443.65 143.49,442.29 145.29,441.14 147.09,440.16 148.88,439.27 150.68,438.36 152.48,437.48 154.27,436.85 156.07,435.62 157.87,434.60 159.66,433.61 161.46,433.06 163.26,431.99 165.05,430.70 166.85,429.65 168.65,429.02 170.45,428.13 172.24,426.96 174.04,426.19 175.84,425.51 177.63,424.79 179.43,423.72 181.23,423.06 183.02,422.40 184.82,421.61 186.62,420.73 188.41,419.35 190.21,418.61 192.01,417.49 193.80,416.56 195.60,415.56 197.40,414.44 199.19,413.92 200.99,413.21 202.79,412.03 204.58,410.90 206.38,410.42 208.18,409.43 209.97,408.72 211.77,407.55 213.57,406.89 215.36,405.89 217.16,405.19 218.96,403.82 220.75,403.29 222.55,402.37 224.35,401.47 226.14,400.15 227.94,399.17 229.74,398.73 231.53,397.94 233.33,396.58 235.13,395.60 236.92,395.36 238.72,394.42 240.52,393.28 242.31,392.26 244.11,391.66 245.91,390.52 247.70,389.82 249.50,388.97 251.30,388.07 253.09,386.72 254.89,386.02 256.69,384.85 258.48,384.41 260.28,383.28 262.08,382.81 263.87,381.38 265.67,380.83 267.47,380.25 269.26,379.45 271.06,378.32 272.86,377.36 274.65,376.66 276.45,375.38 278.25,374.60 280.04,373.72 281.84,373.09 283.64,372.18 285.43,371.44 287.23,370.11 289.03,369.53 290.82,368.50 292.62,367.64 294.42,366.99 296.21,365.86 298.01,364.77 299.81,363.94 301.60,363.74 303.40,362.60 305.20,361.68 306.99,360.38 308.79,359.93 310.59,359.14 312.38,358.21 314.18,356.92 315.98,355.92 317.77,355.08 319.57,354.15 321.37,353.40 323.16,352.50 324.96,351.79 326.76,351.00 328.55,350.05 330.35,348.89 332.15,347.83 333.95,347.57 335.74,346.56 337.54,345.41 339.34,344.36 341.13,343.91 342.93,343.24 344.73,342.09 346.52,341.16 348.32,340.18 350.12,339.93 351.91,338.41 353.71,337.74 355.51,336.59 357.30,336.24 359.10,334.97 360.90,334.05 362.69,333.00 364.49,332.45 366.29,332.00 368.08,330.59 369.88,329.76 371.68,328.49 373.47,327.96 375.27,326.28 377.07,325.63 378.86,324.52 380.66,323.97 382.46,322.61 384.25,322.20 386.05,321.16 387.85,320.67 389.64,319.59 391.44,319.17 393.24,317.64 395.03,317.35 396.83,315.68 398.63,315.22 400.42,313.89 402.22,313.40 404.02,312.41 405.81,311.22 407.61,310.51 409.41,309.76 411.20,308.71 413.00,307.38 414.80,306.71 416.59,306.10 418.39,304.80 420.19,303.69 421.98,302.97 423.78,302.35 425.58,301.52 427.37,300.64 429.17,299.45 430.97,298.72 432.76,297.85 434.56,296.49 436.36,295.66 438.15,294.57 439.95,293.87 441.75,292.92 443.54,291.50 445.34,290.93 447.14,289.65 448.93,288.70 450.73,287.39 452.53,286.84 454.32,285.81 456.12,284.85 457.92,283.35 459.71,282.91 461.51,282.12 463.31,281.17 465.10,279.72 466.90,279.27 468.70,278.31 470.49,277.26 472.29,276.19 474.09,275.18 475.88,274.71 477.68,273.36 479.48,272.26 481.27,271.16 483.07,270.12 484.87,268.93 486.66,267.66 488.46,267.16 490.26,265.93 492.05,265.01 493.85,263.75 495.65,263.05 497.45,261.92 499.24,261.08 501.04,260.46 502.84,259.48 504.63,258.66 506.43,257.60 508.23,256.94 510.02,255.90 511.82,255.23 513.62,254.54 515.41,253.43 517.21,252.58 519.01,251.75 520.80,251.15 522.60,249.75 524.40,248.89 526.19,248.23 527.99,247.38 529.79,246.49 531.58,245.14 533.38,244.31 535.18,243.14 536.97,242.36 538.77,241.51 540.57,240.73 542.36,240.07 544.16,239.23 545.96,238.17 547.75,237.52 549.55,236.40 551.35,235.95 553.14,235.12 554.94,234.13 556.74,233.27 558.53,232.31 560.33,231.52 562.13,230.45 563.92,229.58 565.72,228.39 567.52,227.50 569.31,226.56 571.11,225.64 572.91,224.28 574.70,223.85 576.50,223.08 578.30,222.13 580.09,220.78 581.89,219.92 583.69,219.26 585.48,218.23 587.28,216.98 589.08,216.06 590.87,215.29 592.67,214.26 594.47,213.03 596.26,212.84 598.06,211.81 599.86,211.32 601.65,209.48 603.45,209.04 605.25,208.24 607.04,207.59 608.84,206.33 610.64,205.60 612.43,204.81 614.23,204.10 616.03,202.78 617.82,202.22 619.62,201.25 621.42,200.48 623.21,199.42 625.01,198.41 626.81,197.88 628.60,196.60 630.40,195.96 632.20,194.68 633.99,194.05 635.79,192.44 637.59,191.79 639.38,190.68 641.18,189.99 642.98,188.93 644.77,187.84 646.57,187.03 648.37,186.37 650.16,185.47 651.96,184.87 653.76,184.01 655.55,183.00 657.35,181.81 659.15,181.22 660.95,179.92 662.74,179.02 664.54,177.84 666.34,177.21 668.13,176.39 669.93,175.44 671.73,174.35 673.52,173.69 675.32,173.06 677.12,172.15 678.91,171.29 680.71,169.92 682.51,169.53 684.30,168.71 686.10,168.20 687.90,166.99 689.69,166.14 691.49,165.37 693.29,164.50 695.08,163.48 696.88,162.38 698.68,161.52 700.47,160.74 702.27,159.65 704.07,159.37 705.86,157.85 707.66,157.22 709.46,155.86 711.25,155.07 713.05,154.08 714.85,153.22 716.64,152.49 718.44,151.62 720.24,150.09 722.03,149.44 723.83,148.12 725.63,147.57 727.42,146.74 729.22,145.61 731.02,144.79 732.81,144.14 734.61,143.47 736.41,142.40 738.20,141.47 740.00,140.94" fill="none" stroke="#1f77b4" stroke-width="2.5"/>
<polyline points="86.00,471.37 87.80,470.65 89.59,468.29 91.39,468.05 93.19,467.86 94.98,467.10 96.78,466.46 98.58,465.73 100.37,463.60 102.17,463.13 103.97,462.94 105.76,462.25 107.56,461.63 109.36,460.23 111.15,459.16 112.95,458.44 114.75,457.78 116.54,457.24 118.34,456.44 120.14,455.49 121.93,454.44 123.73,453.22 125.53,452.87 127.32,452.40 129.12,451.75 130.92,450.55 132.71,449.48 134.51,448.75 136.31,447.92 138.10,447.43 139.90,446.90 141.70,445.91 143.49,444.60 145.29,443.66 147.09,443.07 148.88,442.56 150.68,441.94 152.48,440.93 154.27,439.62 156.07,438.90 157.87,438.13 159.66,437.63 161.46,437.13 163.26,435.93 165.05,434.86 166.85,433.93 168.65,433.34 170.45,432.87 172.24,431.86 174.04,430.92 175.84,430.12 177.63,428.85 179.43,428.43 181.23,427.76 183.02,426.91 184.82,426.19 186.62,425.04 188.41,423.98 190.21,423.43 192.01,422.78 193.80,422.02 195.60,421.09 197.40,420.42 199.19,419.15 200.99,418.74 202.79,417.95 204.58,417.20 206.38,416.14 208.18,415.28 209.97,414.46 211.77,413.98 213.57,413.04 215.36,412.29 217.16,411.22 218.96,410.35 220.75,409.77 222.55,408.87 224.35,408.05 226.14,407.39 227.94,406.48 229.74,405.38 231.53,404.55 233.33,404.12 235.13,403.36 236.92,402.35 238.72,401.46 240.52,400.19 242.31,399.75 244.11,399.08 245.91,398.23 247.70,397.08 249.50,396.63 251.30,395.37 253.09,394.66 254.89,394.08 256.69,393.10 258.48,392.40 260.28,391.51 262.08,390.38 263.87,389.75 265.67,389.31 267.47,388.32 269.26,387.36 271.06,386.76 272.86,385.70 274.65,384.85 276.45,384.50 278.25,383.18 280.04,382.72 281.84,381.95 283.64,380.98 285.43,380.15 287.23,379.75 289.03,378.45 290.82,377.56 292.62,377.03 294.42,376.32 296.21,375.38 298.01,374.71 299.81,373.88 301.60,372.78 303.40,371.98 305.20,371.16 306.99,370.67 308.79,369.94 310.59,368.75 312.38,367.90 314.18,367.09 315.98,366.20 317.77,365.71 319.57,364.98 321.37,363.98 323.16,362.68 324.96,362.32 326.76,361.27 328.55,360.71 330.35,360.06 332.15,359.06 333.95,357.78 335.74,357.22 337.54,356.40 339.34,355.84 341.13,355.13 342.93,353.95 344.73,352.68 346.52,352.36 348.32,351.72 350.12,350.66 351.91,350.17 353.71,349.07 355.51,347.93 357.30,347.37 359.10,346.49 360.90,345.93 362.69,345.20 364.49,344.22 366.29,343.14 368.08,342.55 369.88,341.71 371.68,340.98 373.47,340.29 375.27,339.39 377.07,338.09 378.86,337.74 380.66,336.92 382.46,336.15 384.25,335.50 386.05,334.39 387.85,333.31 389.64,332.72 391.44,332.01 393.24,331.42 395.03,330.44 396.83,329.51 398.63,328.69 400.42,327.63 402.22,327.00 404.02,326.35 405.81,325.38 407.61,324.68 409.41,323.60 411.20,322.71 413.00,322.09 414.80,321.37 416.59,320.17 418.39,319.69 420.19,318.81 421.98,317.64 423.78,317.25 425.58,316.19 427.37,315.23 429.17,314.41 430.97,313.91 432.76,312.94 434.56,312.17 436.36,311.27 438.15,310.39 439.95,309.57 441.75,308.51 443.54,308.10 445.34,307.44 447.14,306.24 448.93,305.60 450.73,304.81 452.53,303.69 454.32,303.30 456.12,302.66 457.92,301.49 459.71,300.66 461.51,299.65 463.31,299.00 465.10,298.31 466.90,297.52 468.70,297.01 470.49,295.64 472.29,294.98 474.09,293.99 475.88,293.48 477.68,292.57 479.48,291.79 481.27,290.69 483.07,290.24 484.87,289.39 486.66,288.22 488.46,287.63 490.26,287.01 492.05,285.83 493.85,285.37 495.65,284.53 497.45,283.14 499.24,282.55 501.04,282.17 502.84,280.94 504.63,280.20 506.43,279.33 508.23,278.36 510.02,277.68 511.82,276.97 513.62,275.81 515.41,275.15 517.21,274.31 519.01,273.60 520.80,272.72 522.60,271.81 524.40,270.95 526.19,270.05 527.99,269.16 529.79,268.46 531.58,267.74 533.38,267.21 535.18,265.85 536.97,264.97 538.77,264.23 540.57,263.52 542.36,263.01 544.16,262.03 545.96,261.12 547.75,259.84 549.55,259.24 551.35,258.61 553.14,257.82 554.94,257.06 556.74,256.13 558.53,255.25 560.33,253.97 562.13,253.54 563.92,252.86 565.72,252.23 567.52,251.28 569.31,250.15 571.11,249.60 572.91,248.36 574.70,247.90 576.50,247.06 578.30,246.49 580.09,245.40 581.89,244.52 583.69,243.67 585.48,243.04 587.28,242.15 589.08,241.26 590.87,240.64 592.67,239.56 594.47,238.87 596.26,238.25 598.06,237.29 599.86,236.40 601.65,235.77 603.45,234.88 605.25,233.76 607.04,232.91 608.84,232.46 610.64,231.27 612.43,230.70 614.23,230.04 616.03,229.04 617.82,227.95 619.62,227.34 621.42,226.49 623.21,225.76 625.01,225.08 626.81,223.71 628.60,223.05 630.40,222.68 632.20,221.45 633.99,220.71 635.79,220.09 637.59,218.94 639.38,218.28 641.18,217.66 642.98,216.72 644.77,215.84 646.57,215.02 648.37,213.96 650.16,213.54 651.96,212.88 653.76,211.68 655.55,210.82 657.35,210.45 659.15,209.31 660.95,208.37 662.74,207.77 664.54,206.85 666.34,205.89 668.13,205.42 669.93,204.25 671.73,203.50 673.52,202.67 675.32,202.17 677.12,200.86 678.91,200.40 680.71,199.40 682.51,198.46 684.30,197.85 686.10,197.16 687.90,196.00 689.69,195.31 691.49,194.46 693.29,193.73 695.08,192.82 696.88,192.10 698.68,190.99 700.47,190.50 702.27,189.64 704.07,188.46 705.86,187.86 707.66,186.99 709.46,186.27 711.25,185.59 713.05,184.67 714.85,183.78 716.64,182.73 718.44,182.08 720.24,181.42 722.03,180.66 723.83,179.52 725.63,178.66 727.42,177.85 729.22,177.16 731.02,176.45 732.81,175.93 734.61,174.79 736.41,173.70 738.20,173.17 740.00,172.10" fill="none" stroke="#d62728" stroke-width="2.5"/>
<polyline points="86.00,471.14 87.80,468.64 89.59,468.26 91.39,467.89 93.19,466.73 94.98,465.68 96.78,464.75 98.58,463.96 100.37,462.84 102.17,460.97 103.97,460.10 105.76,459.60 107.56,458.61 109.36,457.53 111.15,456.58 112.95,455.78 114.75,454.23 116.54,452.82 118.34,452.23 120.14,451.36 121.93,450.44 123.73,449.54 125.53,448.67 127.32,447.70 129.12,445.78 130.92,444.87 132.71,444.42 134.51,443.46 136.31,442.44 138.10,441.31 139.90,440.55 141.70,439.67 143.49,437.72 145.29,436.79 147.09,436.33 148.88,435.38 150.68,434.36 152.48,433.25 154.27,432.49 156.07,431.43 157.87,429.52 159.66,428.84 161.46,428.32 163.26,427.29 165.05,426.29 166.85,425.20 168.65,424.45 170.45,423.18 172.24,421.50 174.04,420.83 175.84,420.21 177.63,419.22 179.43,418.24 181.23,417.38 183.02,416.21 184.82,415.39 186.62,413.79 188.41,412.99 190.21,412.21 192.01,411.26 193.80,410.33 195.60,409.45 197.40,408.26 199.19,407.18 200.99,405.59 202.79,405.03 204.58,404.16 206.38,403.13 208.18,402.23 209.97,401.13 211.77,400.35 213.57,399.04 215.36,397.97 217.16,396.58 218.96,395.89 220.75,395.13 222.55,394.07 224.35,393.13 226.14,392.10 227.94,391.18 229.74,389.95 231.53,388.30 233.33,387.77 235.13,387.06 236.92,385.96 238.72,385.00 240.52,383.93 242.31,382.97 244.11,381.91 245.91,380.44 247.70,379.43 249.50,378.79 251.30,377.87 253.09,376.87 254.89,375.79 256.69,374.81 258.48,373.52 260.28,372.27 262.08,371.26 263.87,370.51 265.67,369.56 267.47,368.54 269.26,367.44 271.06,366.45 272.86,365.37 274.65,363.88 276.45,363.09 278.25,362.22 280.04,361.29 281.84,360.39 283.64,358.87 285.43,358.12 287.23,357.05 289.03,355.79 290.82,354.88 292.62,353.88 294.42,352.80 296.21,351.95 298.01,350.91 299.81,349.88 301.60,348.54 303.40,347.47 305.20,346.65 306.99,345.85 308.79,344.53 310.59,343.68 312.38,342.97 314.18,341.74 315.98,340.41 317.77,339.22 319.57,338.62 321.37,337.61 323.16,336.42 324.96,335.57 326.76,334.74 328.55,333.70 330.35,332.79 332.15,330.88 333.95,330.32 335.74,329.56 337.54,328.52 339.34,327.39 341.13,326.51 342.93,325.53 344.73,324.35 346.52,322.85 348.32,322.04 350.12,321.15 351.91,320.21 353.71,319.07 355.51,318.18 357.30,316.98 359.10,316.23 360.90,314.73 362.69,313.37 364.49,312.80 366.29,311.73 368.08,310.71 369.88,309.58 371.68,308.70 373.47,307.72 375.27,306.77 377.07,305.06 378.86,304.29 380.66,303.54 382.46,302.64 384.25,301.54 386.05,300.70 387.85,299.76 389.64,298.40 391.44,297.16 393.24,296.40 395.03,295.46 396.83,294.55 398.63,293.45 400.42,292.59 402.22,291.84 404.02,290.68 405.81,288.97 407.61,288.29 409.41,287.53 411.20,286.58 413.00,285.43 414.80,284.53 416.59,283.77 418.39,282.36 420.19,281.09 421.98,280.16 423.78,279.28 425.58,278.44 427.37,277.51 429.17,276.38 430.97,275.39 432.76,274.11 434.56,273.08 436.36,272.07 438.15,271.33 439.95,270.31 441.75,269.22 443.54,268.26 445.34,267.34 447.14,266.21 448.93,264.66 450.73,264.01 452.53,263.08 454.32,262.09 456.12,261.01 457.92,259.95 459.71,259.26 461.51,258.16 463.31,256.42 465.10,255.71 466.90,255.14 468.70,254.21 470.49,252.85 472.29,251.84 474.09,251.18 475.88,250.01 477.68,248.64 479.48,247.64 481.27,246.99 483.07,246.16 484.87,244.79 486.66,243.77 488.46,243.10 490.26,241.92 492.05,240.77 493.85,239.52 495.65,238.88 497.45,237.93 499.24,237.02 501.04,235.79 502.84,235.02 504.63,233.93 506.43,232.34 508.23,231.53 510.02,230.87 511.82,229.93 513.62,228.59 515.41,227.59 517.21,226.73 519.01,225.59 520.80,224.45 522.60,223.35 524.40,222.62 526.19,221.80 527.99,220.68 529.79,219.47 531.58,218.60 533.38,217.77 535.18,216.41 536.97,215.27 538.77,214.62 540.57,213.79 542.36,212.44 544.16,211.22 545.96,210.55 547.75,209.39 549.55,208.35 551.35,206.99 553.14,206.22 554.94,205.49 556.74,204.35 558.53,202.89 560.33,202.22 562.13,201.35 563.92,200.09 565.72,198.95 567.52,198.07 569.31,197.33 571.11,196.07 572.91,195.04 574.70,194.36 576.50,192.94 578.30,192.00 580.09,190.77 581.89,189.81 583.69,189.09 585.48,187.97 587.28,187.09 589.08,185.89 590.87,184.92 592.67,183.87 594.47,182.95 596.26,181.62 598.06,180.89 599.86,179.96 601.65,178.86 603.45,177.87 605.25,176.91 607.04,175.96 608.84,174.39 610.64,173.51 612.43,172.65 614.23,171.72 616.03,170.81 617.82,169.51 619.62,168.32 621.42,167.48 623.21,166.11 625.01,165.33 626.81,164.12 628.60,163.17 630.40,162.35 632.20,161.22 633.99,160.22 635.79,159.32 637.59,157.81 639.38,156.76 641.18,155.96 642.98,155.08 644.77,154.12 646.57,152.97 648.37,152.17 650.16,150.64 651.96,149.58 653.76,148.65 655.55,147.65 657.35,146.78 659.15,145.85 660.95,144.72 662.74,143.95 664.54,142.62 666.34,141.32 668.13,140.37 669.93,139.46 671.73,138.59 673.52,137.64 675.32,136.71 677.12,135.47 678.91,134.81 680.71,132.96 682.51,132.14 684.30,131.44 686.10,130.48 687.90,129.55 689.69,128.64 691.49,127.64 693.29,126.32 695.08,125.13 696.88,123.97 698.68,123.29 700.47,122.45 702.27,121.40 704.07,120.49 705.86,119.70 707.66,118.14 709.46,117.15 711.25,116.05 713.05,115.10 714.85,114.29 716.64,113.29 718.44,112.32 720.24,111.46 722.03,110.50 723.83,108.78 725.63,107.85 727.42,106.96 729.22,106.11 731.02,105.20 732.81,104.20 734.61,103.34 736.41,102.61 738.20,100.46 740.00,99.78" fill="none" stroke="#2ca02c" stroke-width="2.5"/>
<line x1="770" y1="78" x2="798" y2="78" stroke="#1f77b4" stroke-width="2.5"/>
<text x="808" y="82" font-family="Arial" font-size="13">bajo_inventario</text>
<line x1="770" y1="102" x2="798" y2="102" stroke="#d62728" stroke-width="2.5"/>
<text x="808" y="106" font-family="Arial" font-size="13">balanceada</text>
<line x1="770" y1="126" x2="798" y2="126" stroke="#2ca02c" stroke-width="2.5"/>
<text x="808" y="130" font-family="Arial" font-size="13">alto_servicio</text>
</svg>
