<svg xmlns="http://www.w3.org/2000/svg" width="960" height="560" viewBox="0 0 960 560">
<rect width="100%" height="100%" fill="#ffffff"/>
<text x="480.0" y="32" text-anchor="middle" font-family="Arial" font-size="22" font-weight="700">Demanda diaria promedio por politica</text>
<line x1="86" y1="472.00" x2="740" y2="472.00" stroke="#e6e6e6" stroke-width="1"/>
<text x="76" y="476.00" text-anchor="end" font-family="Arial" font-size="12">0</text>
<line x1="86" y1="391.60" x2="740" y2="391.60" stroke="#e6e6e6" stroke-width="1"/>
<text x="76" y="395.60" text-anchor="end" font-family="Arial" font-size="12">5.23</text>
<line x1="86" y1="311.20" x2="740" y2="311.20" stroke="#e6e6e6" stroke-width="1"/>
<text x="76" y="315.20" text-anchor="end" font-family="Arial" font-size="12">10.5</text>
<line x1="86" y1="230.80" x2="740" y2="230.80" stroke="#e6e6e6" stroke-width="1"/>
<text x="76" y="234.80" text-anchor="end" font-family="Arial" font-size="12">15.7</text>
<line x1="86" y1="150.40" x2="740" y2="150.40" stroke="#e6e6e6" stroke-width="1"/>
<text x="76" y="154.40" text-anchor="end" font-family="Arial" font-size="12">20.9</text>
<line x1="86" y1="70.00" x2="740" y2="70.00" stroke="#e6e6e6" stroke-width="1"/>
<text x="76" y="74.00" text-anchor="end" font-family="Arial" font-size="12">26.1</text>
<line x1="86" y1="472" x2="740" y2="472" stroke="#222" stroke-width="1.5"/>
<line x1="86" y1="70" x2="86" y2="472" stroke="#222" stroke-width="1.5"/>
<text x="86.00" y="497" text-anchor="middle" font-family="Arial" font-size="12">1</text>
<text x="249.50" y="497" text-anchor="middle" font-family="Arial" font-size="12">92</text>
<text x="413.00" y="497" text-anchor="middle" font-family="Arial" font-size="12">183</text>
<text x="576.50" y="497" text-anchor="middle" font-family="Arial" font-size="12">274</text>
<text x="740.00" y="497" text-anchor="middle" font-family="Arial" font-size="12">365</text>
<text x="413.0" y="535" text-anchor="middle" font-family="Arial" font-size="14">Dia</text>
<text x="26" y="271.0" text-anchor="middle" font-family="Arial" font-size="14" transform="rotate(-90 26 271.0)">Unidades por dia</text>
<polyline points="86.00,185.91 87.80,182.84 89.59,139.77 91.39,196.68 93.19,175.15 94.98,172.07 96.78,158.23 98.58,119.77 100.37,170.53 102.17,178.22 103.97,185.91 105.76,172.07 107.56,133.62 109.36,172.07 111.15,175.15 112.95,193.60 114.75,192.06 116.54,172.07 118.34,172.07 120.14,167.45 121.93,162.84 123.73,129.00 125.53,178.22 127.32,125.93 129.12,179.76 130.92,167.45 132.71,155.15 134.51,168.99 136.31,158.23 138.10,147.46 139.90,159.76 141.70,149.00 143.49,116.70 145.29,149.00 147.09,155.15 148.88,188.99 150.68,172.07 152.48,164.38 154.27,156.69 156.07,144.38 157.87,187.45 159.66,159.76 161.46,173.61 163.26,144.38 165.05,168.99 166.85,144.38 168.65,187.45 170.45,139.77 172.24,193.60 174.04,159.76 175.84,149.00 177.63,170.53 179.43,195.14 181.23,153.61 183.02,176.68 184.82,170.53 186.62,161.30 188.41,125.93 190.21,164.38 192.01,182.84 193.80,144.38 195.60,179.76 197.40,153.61 199.19,150.54 200.99,175.15 202.79,135.15 204.58,176.68 206.38,155.15 208.18,141.31 209.97,110.54 211.77,165.92 213.57,158.23 215.36,168.99 217.16,130.54 218.96,165.92 220.75,161.30 222.55,167.45 224.35,153.61 226.14,168.99 227.94,130.54 229.74,210.52 231.53,172.07 233.33,182.84 235.13,155.15 236.92,159.76 238.72,122.85 240.52,173.61 242.31,155.15 244.11,173.61 245.91,159.76 247.70,179.76 249.50,182.84 251.30,162.84 253.09,153.61 254.89,159.76 256.69,182.84 258.48,172.07 260.28,176.68 262.08,199.75 263.87,190.53 265.67,184.37 267.47,138.23 269.26,184.37 271.06,150.54 272.86,142.84 274.65,159.76 276.45,144.38 278.25,172.07 280.04,187.45 281.84,156.69 283.64,149.00 285.43,168.99 287.23,192.06 289.03,188.99 290.82,139.77 292.62,162.84 294.42,196.68 296.21,162.84 298.01,188.99 299.81,175.15 301.60,149.00 303.40,196.68 305.20,188.99 306.99,155.15 308.79,124.39 310.59,158.23 312.38,167.45 314.18,142.84 315.98,161.30 317.77,184.37 319.57,182.84 321.37,167.45 323.16,172.07 324.96,162.84 326.76,175.15 328.55,167.45 330.35,152.07 332.15,192.06 333.95,212.06 335.74,168.99 337.54,147.46 339.34,202.83 341.13,199.75 342.93,138.23 344.73,158.23 346.52,198.22 348.32,184.37 350.12,141.31 351.91,172.07 353.71,141.31 355.51,196.68 357.30,138.23 359.10,179.76 360.90,142.84 362.69,158.23 364.49,175.15 366.29,176.68 368.08,188.99 369.88,144.38 371.68,150.54 373.47,152.07 375.27,147.46 377.07,153.61 378.86,158.23 380.66,165.92 382.46,170.53 384.25,179.76 386.05,161.30 387.85,193.60 389.64,145.92 391.44,149.00 393.24,167.45 395.03,161.30 396.83,172.07 398.63,156.69 400.42,118.24 402.22,144.38 404.02,179.76 405.81,178.22 407.61,161.30 409.41,196.68 411.20,153.61 413.00,110.54 414.80,156.69 416.59,159.76 418.39,153.61 420.19,175.15 421.98,164.38 423.78,116.70 425.58,175.15 427.37,135.15 429.17,132.08 430.97,208.98 432.76,153.61 434.56,132.08 436.36,155.15 438.15,170.53 439.95,159.76 441.75,175.15 443.54,145.92 445.34,147.46 447.14,153.61 448.93,150.54 450.73,164.38 452.53,118.24 454.32,147.46 456.12,147.46 457.92,161.30 459.71,155.15 461.51,184.37 463.31,173.61 465.10,167.45 466.90,150.54 468.70,170.53 470.49,124.39 472.29,179.76 474.09,133.62 475.88,215.14 477.68,109.01 479.48,184.37 481.27,162.84 483.07,99.78 484.87,168.99 486.66,178.22 488.46,135.15 490.26,139.77 492.05,145.92 493.85,159.76 495.65,164.38 497.45,138.23 499.24,155.15 501.04,181.30 502.84,175.15 504.63,175.15 506.43,170.53 508.23,144.38 510.02,144.38 511.82,158.23 513.62,153.61 515.41,182.84 517.21,179.76 519.01,176.68 520.80,164.38 522.60,147.46 524.40,187.45 526.19,215.14 527.99,172.07 529.79,170.53 531.58,165.92 533.38,162.84 535.18,158.23 536.97,190.53 538.77,185.91 540.57,173.61 542.36,205.91 544.16,170.53 545.96,185.91 547.75,178.22 549.55,145.92 551.35,159.76 553.14,215.14 554.94,168.99 556.74,144.38 558.53,175.15 560.33,135.15 562.13,215.14 563.92,145.92 565.72,135.15 567.52,173.61 569.31,170.53 571.11,179.76 572.91,138.23 574.70,153.61 576.50,173.61 578.30,170.53 580.09,153.61 581.89,162.84 583.69,208.98 585.48,144.38 587.28,142.84 589.08,158.23 590.87,127.46 592.67,161.30 594.47,179.76 596.26,182.84 598.06,173.61 599.86,130.54 601.65,158.23 603.45,175.15 605.25,224.36 607.04,144.38 608.84,165.92 610.64,127.46 612.43,122.85 614.23,172.07 616.03,170.53 617.82,149.00 619.62,173.61 621.42,175.15 623.21,138.23 625.01,162.84 626.81,181.30 628.60,136.69 630.40,164.38 632.20,161.30 633.99,129.00 635.79,125.93 637.59,162.84 639.38,164.38 641.18,125.93 642.98,150.54 644.77,187.45 646.57,144.38 648.37,198.22 650.16,179.76 651.96,162.84 653.76,168.99 655.55,139.77 657.35,149.00 659.15,187.45 660.95,149.00 662.74,112.08 664.54,159.76 666.34,196.68 668.13,168.99 669.93,136.69 671.73,164.38 673.52,176.68 675.32,173.61 677.12,185.91 678.91,161.30 680.71,222.83 682.51,144.38 684.30,182.84 686.10,176.68 687.90,176.68 689.69,139.77 691.49,176.68 693.29,104.39 695.08,175.15 696.88,159.76 698.68,155.15 700.47,161.30 702.27,149.00 704.07,173.61 705.86,152.07 707.66,162.84 709.46,152.07 711.25,170.53 713.05,207.45 714.85,150.54 716.64,155.15 718.44,176.68 720.24,178.22 722.03,121.31 723.83,178.22 725.63,176.68 727.42,173.61 729.22,193.60 731.02,149.00 732.81,170.53 734.61,161.30 736.41,155.15 738.20,164.38 740.00,181.30" fill="none" stroke="#1f77b4" stroke-width="2.5"/>
<polyline points="86.00,130.54 87.80,159.76 89.59,167.45 91.39,153.61 93.19,181.30 94.98,175.15 96.78,172.07 98.58,142.84 100.37,162.84 102.17,170.53 103.97,152.07 105.76,187.45 107.56,136.69 109.36,205.91 111.15,210.52 112.95,170.53 114.75,122.85 116.54,170.53 118.34,162.84 120.14,147.46 121.93,165.92 123.73,165.92 125.53,147.46 127.32,201.29 129.12,159.76 130.92,199.75 132.71,164.38 134.51,192.06 136.31,167.45 138.10,153.61 139.90,175.15 141.70,178.22 143.49,152.07 145.29,135.15 147.09,164.38 148.88,230.52 150.68,170.53 152.48,158.23 154.27,122.85 156.07,152.07 157.87,193.60 159.66,145.92 161.46,115.16 163.26,182.84 165.05,173.61 166.85,125.93 168.65,161.30 170.45,168.99 172.24,130.54 174.04,138.23 175.84,136.69 177.63,161.30 179.43,196.68 181.23,173.61 183.02,145.92 184.82,167.45 186.62,170.53 188.41,150.54 190.21,139.77 192.01,156.69 193.80,172.07 195.60,173.61 197.40,188.99 199.19,138.23 200.99,150.54 202.79,167.45 204.58,132.08 206.38,181.30 208.18,139.77 209.97,204.37 211.77,139.77 213.57,162.84 215.36,182.84 217.16,164.38 218.96,152.07 220.75,145.92 222.55,138.23 224.35,145.92 226.14,182.84 227.94,188.99 229.74,188.99 231.53,198.22 233.33,175.15 235.13,199.75 236.92,170.53 238.72,170.53 240.52,159.76 242.31,208.98 244.11,145.92 245.91,132.08 247.70,172.07 249.50,168.99 251.30,133.62 253.09,175.15 254.89,158.23 256.69,155.15 258.48,167.45 260.28,202.83 262.08,156.69 263.87,135.15 265.67,181.30 267.47,188.99 269.26,188.99 271.06,162.84 272.86,138.23 274.65,136.69 276.45,125.93 278.25,144.38 280.04,149.00 281.84,179.76 283.64,182.84 285.43,147.46 287.23,139.77 289.03,147.46 290.82,164.38 292.62,142.84 294.42,150.54 296.21,145.92 298.01,152.07 299.81,156.69 301.60,207.45 303.40,115.16 305.20,141.31 306.99,184.37 308.79,141.31 310.59,170.53 312.38,165.92 314.18,182.84 315.98,144.38 317.77,162.84 319.57,185.91 321.37,199.75 323.16,127.46 324.96,162.84 326.76,162.84 328.55,147.46 330.35,176.68 332.15,195.14 333.95,113.62 335.74,142.84 337.54,190.53 339.34,164.38 341.13,124.39 342.93,152.07 344.73,176.68 346.52,141.31 348.32,149.00 350.12,198.22 351.91,162.84 353.71,175.15 355.51,182.84 357.30,156.69 359.10,158.23 360.90,192.06 362.69,165.92 364.49,175.15 366.29,199.75 368.08,164.38 369.88,170.53 371.68,179.76 373.47,178.22 375.27,110.54 377.07,152.07 378.86,156.69 380.66,147.46 382.46,173.61 384.25,145.92 386.05,185.91 387.85,182.84 389.64,188.99 391.44,195.14 393.24,162.84 395.03,182.84 396.83,158.23 398.63,196.68 400.42,153.61 402.22,133.62 404.02,147.46 405.81,161.30 407.61,162.84 409.41,136.69 411.20,184.37 413.00,159.76 414.80,178.22 416.59,181.30 418.39,145.92 420.19,178.22 421.98,107.47 423.78,173.61 425.58,138.23 427.37,199.75 429.17,141.31 430.97,198.22 432.76,168.99 434.56,149.00 436.36,136.69 438.15,176.68 439.95,136.69 441.75,158.23 443.54,136.69 445.34,158.23 447.14,152.07 448.93,201.29 450.73,133.62 452.53,153.61 454.32,138.23 456.12,158.23 457.92,145.92 459.71,184.37 461.51,175.15 463.31,138.23 465.10,172.07 466.90,162.84 468.70,168.99 470.49,196.68 472.29,201.29 474.09,193.60 475.88,185.91 477.68,173.61 479.48,138.23 481.27,170.53 483.07,152.07 484.87,164.38 486.66,165.92 488.46,156.69 490.26,161.30 492.05,187.45 493.85,168.99 495.65,136.69 497.45,167.45 499.24,153.61 501.04,139.77 502.84,159.76 504.63,188.99 506.43,232.06 508.23,178.22 510.02,122.85 511.82,172.07 513.62,105.93 515.41,167.45 517.21,182.84 519.01,135.15 520.80,168.99 522.60,173.61 524.40,167.45 526.19,175.15 527.99,109.01 529.79,179.76 531.58,130.54 533.38,188.99 535.18,164.38 536.97,168.99 538.77,175.15 540.57,162.84 542.36,150.54 544.16,175.15 545.96,144.38 547.75,155.15 549.55,192.06 551.35,162.84 553.14,124.39 554.94,212.06 556.74,147.46 558.53,184.37 560.33,204.37 562.13,164.38 563.92,161.30 565.72,164.38 567.52,182.84 569.31,178.22 571.11,135.15 572.91,170.53 574.70,165.92 576.50,153.61 578.30,127.46 580.09,133.62 581.89,150.54 583.69,182.84 585.48,132.08 587.28,168.99 589.08,119.77 590.87,153.61 592.67,164.38 594.47,198.22 596.26,156.69 598.06,165.92 599.86,161.30 601.65,172.07 603.45,179.76 605.25,156.69 607.04,144.38 608.84,199.75 610.64,136.69 612.43,170.53 614.23,182.84 616.03,184.37 617.82,173.61 619.62,187.45 621.42,141.31 623.21,168.99 625.01,173.61 626.81,162.84 628.60,179.76 630.40,127.46 632.20,187.45 633.99,182.84 635.79,175.15 637.59,142.84 639.38,168.99 641.18,172.07 642.98,167.45 644.77,150.54 646.57,136.69 648.37,152.07 650.16,172.07 651.96,135.15 653.76,145.92 655.55,190.53 657.35,182.84 659.15,153.61 660.95,170.53 662.74,181.30 664.54,175.15 666.34,173.61 668.13,184.37 669.93,173.61 671.73,164.38 673.52,156.69 675.32,147.46 677.12,149.00 678.91,167.45 680.71,159.76 682.51,155.15 684.30,176.68 686.10,132.08 687.90,165.92 689.69,201.29 691.49,173.61 693.29,147.46 695.08,168.99 696.88,204.37 698.68,158.23 700.47,184.37 702.27,124.39 704.07,161.30 705.86,162.84 707.66,181.30 709.46,116.70 711.25,170.53 713.05,167.45 714.85,201.29 716.64,159.76 718.44,176.68 720.24,141.31 722.03,158.23 723.83,127.46 725.63,167.45 727.42,164.38 729.22,135.15 731.02,175.15 732.81,170.53 734.61,190.53 736.41,164.38 738.20,181.30 740.00,167.45" fill="none" stroke="#d62728" stroke-width="2.5"/>
<polyline points="86.00,152.07 87.80,168.99 89.59,161.30 91.39,195.14 93.19,155.15 94.98,207.45 96.78,164.38 98.58,152.07 100.37,208.98 102.17,153.61 103.97,184.37 105.76,165.92 107.56,161.30 109.36,185.91 111.15,147.46 112.95,152.07 114.75,116.70 116.54,153.61 118.34,113.62 120.14,136.69 121.93,141.31 123.73,158.23 125.53,178.22 127.32,167.45 129.12,124.39 130.92,150.54 132.71,190.53 134.51,198.22 136.31,150.54 138.10,178.22 139.90,142.84 141.70,202.83 143.49,161.30 145.29,156.69 147.09,152.07 148.88,152.07 150.68,139.77 152.48,179.76 154.27,159.76 156.07,135.15 157.87,152.07 159.66,141.31 161.46,156.69 163.26,196.68 165.05,165.92 166.85,153.61 168.65,182.84 170.45,145.92 172.24,145.92 174.04,152.07 175.84,159.76 177.63,115.16 179.43,210.52 181.23,176.68 183.02,161.30 184.82,178.22 186.62,207.45 188.41,179.76 190.21,188.99 192.01,158.23 193.80,188.99 195.60,105.93 197.40,153.61 199.19,202.83 200.99,125.93 202.79,145.92 204.58,182.84 206.38,167.45 208.18,152.07 209.97,199.75 211.77,195.14 213.57,179.76 215.36,190.53 217.16,168.99 218.96,167.45 220.75,158.23 222.55,195.14 224.35,172.07 226.14,176.68 227.94,201.29 229.74,156.69 231.53,184.37 233.33,184.37 235.13,164.38 236.92,167.45 238.72,155.15 240.52,201.29 242.31,192.06 244.11,201.29 245.91,142.84 247.70,167.45 249.50,167.45 251.30,162.84 253.09,142.84 254.89,170.53 256.69,212.06 258.48,156.69 260.28,147.46 262.08,156.69 263.87,190.53 265.67,188.99 267.47,164.38 269.26,142.84 271.06,193.60 272.86,167.45 274.65,132.08 276.45,144.38 278.25,192.06 280.04,139.77 281.84,150.54 283.64,139.77 285.43,201.29 287.23,192.06 289.03,179.76 290.82,167.45 292.62,178.22 294.42,196.68 296.21,179.76 298.01,170.53 299.81,198.22 301.60,150.54 303.40,122.85 305.20,141.31 306.99,213.60 308.79,185.91 310.59,138.23 312.38,153.61 314.18,156.69 315.98,179.76 317.77,152.07 319.57,142.84 321.37,178.22 323.16,170.53 324.96,178.22 326.76,193.60 328.55,188.99 330.35,182.84 332.15,195.14 333.95,173.61 335.74,196.68 337.54,159.76 339.34,179.76 341.13,165.92 342.93,168.99 344.73,176.68 346.52,173.61 348.32,179.76 350.12,138.23 351.91,168.99 353.71,167.45 355.51,145.92 357.30,164.38 359.10,188.99 360.90,176.68 362.69,159.76 364.49,173.61 366.29,155.15 368.08,155.15 369.88,175.15 371.68,178.22 373.47,190.53 375.27,142.84 377.07,164.38 378.86,118.24 380.66,159.76 382.46,127.46 384.25,175.15 386.05,144.38 387.85,164.38 389.64,187.45 391.44,178.22 393.24,139.77 395.03,164.38 396.83,188.99 398.63,149.00 400.42,198.22 402.22,178.22 404.02,185.91 405.81,176.68 407.61,135.15 409.41,162.84 411.20,224.36 413.00,164.38 414.80,158.23 416.59,168.99 418.39,173.61 420.19,119.77 421.98,212.06 423.78,141.31 425.58,165.92 427.37,182.84 429.17,165.92 430.97,153.61 432.76,116.70 434.56,158.23 436.36,164.38 438.15,145.92 439.95,122.85 441.75,152.07 443.54,150.54 445.34,150.54 447.14,178.22 448.93,192.06 450.73,161.30 452.53,142.84 454.32,161.30 456.12,139.77 457.92,176.68 459.71,129.00 461.51,168.99 463.31,132.08 465.10,158.23 466.90,139.77 468.70,127.46 470.49,185.91 472.29,164.38 474.09,161.30 475.88,164.38 477.68,136.69 479.48,158.23 481.27,178.22 483.07,164.38 484.87,204.37 486.66,173.61 488.46,165.92 490.26,129.00 492.05,168.99 493.85,170.53 495.65,125.93 497.45,175.15 499.24,170.53 501.04,179.76 502.84,199.75 504.63,156.69 506.43,136.69 508.23,168.99 510.02,164.38 511.82,153.61 513.62,144.38 515.41,165.92 517.21,147.46 519.01,119.77 520.80,202.83 522.60,156.69 524.40,159.76 526.19,170.53 527.99,173.61 529.79,176.68 531.58,161.30 533.38,152.07 535.18,185.91 536.97,204.37 538.77,142.84 540.57,156.69 542.36,149.00 544.16,187.45 545.96,182.84 547.75,127.46 549.55,187.45 551.35,208.98 553.14,149.00 554.94,132.08 556.74,162.84 558.53,188.99 560.33,192.06 562.13,162.84 563.92,129.00 565.72,178.22 567.52,142.84 569.31,175.15 571.11,170.53 572.91,195.14 574.70,185.91 576.50,129.00 578.30,161.30 580.09,101.32 581.89,142.84 583.69,187.45 585.48,155.15 587.28,172.07 589.08,199.75 590.87,176.68 592.67,161.30 594.47,190.53 596.26,141.31 598.06,147.46 599.86,147.46 601.65,153.61 603.45,216.67 605.25,155.15 607.04,204.37 608.84,112.08 610.64,153.61 612.43,192.06 614.23,185.91 616.03,158.23 617.82,130.54 619.62,196.68 621.42,149.00 623.21,198.22 625.01,159.76 626.81,193.60 628.60,170.53 630.40,172.07 632.20,182.84 633.99,167.45 635.79,205.91 637.59,139.77 639.38,145.92 641.18,193.60 642.98,184.37 644.77,168.99 646.57,156.69 648.37,159.76 650.16,110.54 651.96,161.30 653.76,152.07 655.55,188.99 657.35,175.15 659.15,162.84 660.95,147.46 662.74,147.46 664.54,216.67 666.34,185.91 668.13,130.54 669.93,168.99 671.73,190.53 673.52,158.23 675.32,168.99 677.12,161.30 678.91,133.62 680.71,168.99 682.51,155.15 684.30,168.99 686.10,147.46 687.90,170.53 689.69,170.53 691.49,155.15 693.29,181.30 695.08,153.61 696.88,164.38 698.68,156.69 700.47,138.23 702.27,221.29 704.07,145.92 705.86,187.45 707.66,182.84 709.46,187.45 711.25,193.60 713.05,190.53 714.85,159.76 716.64,185.91 718.44,172.07 720.24,208.98 722.03,176.68 723.83,187.45 725.63,147.46 727.42,144.38 729.22,195.14 731.02,130.54 732.81,184.37 734.61,138.23 736.41,175.15 738.20,162.84 740.00,124.39" fill="none" stroke="#2ca02c" stroke-width="2.5"/>
<line x1="770" y1="78" x2="798" y2="78" stroke="#1f77b4" stroke-width="2.5"/>
<text x="808" y="82" font-family="Arial" font-size="13">bajo_inventario</text>
<line x1="770" y1="102" x2="798" y2="102" stroke="#d62728" stroke-width="2.5"/>
<text x="808" y="106" font-family="Arial" font-size="13">balanceada</text>
<line x1="770" y1="126" x2="798" y2="126" stroke="#2ca02c" stroke-width="2.5"/>
<text x="808" y="130" font-family="Arial" font-size="13">alto_servicio</text>
</svg>
