<svg xmlns="http://www.w3.org/2000/svg" width="960" height="560" viewBox="0 0 960 560">
<rect width="100%" height="100%" fill="#ffffff"/>
<text x="480.0" y="32" text-anchor="middle" font-family="Arial" font-size="22" font-weight="700">Inventario disponible promedio por politica</text>
<line x1="86" y1="472.00" x2="740" y2="472.00" stroke="#e6e6e6" stroke-width="1"/>
<text x="76" y="476.00" text-anchor="end" font-family="Arial" font-size="12">0</text>
<line x1="86" y1="391.60" x2="740" y2="391.60" stroke="#e6e6e6" stroke-width="1"/>
<text x="76" y="395.60" text-anchor="end" font-family="Arial" font-size="12">39</text>
<line x1="86" y1="311.20" x2="740" y2="311.20" stroke="#e6e6e6" stroke-width="1"/>
<text x="76" y="315.20" text-anchor="end" font-family="Arial" font-size="12">78.1</text>
<line x1="86" y1="230.80" x2="740" y2="230.80" stroke="#e6e6e6" stroke-width="1"/>
<text x="76" y="234.80" text-anchor="end" font-family="Arial" font-size="12">117</text>
<line x1="86" y1="150.40" x2="740" y2="150.40" stroke="#e6e6e6" stroke-width="1"/>
<text x="76" y="154.40" text-anchor="end" font-family="Arial" font-size="12">156</text>
<line x1="86" y1="70.00" x2="740" y2="70.00" stroke="#e6e6e6" stroke-width="1"/>
<text x="76" y="74.00" text-anchor="end" font-family="Arial" font-size="12">195</text>
<line x1="86" y1="472" x2="740" y2="472" stroke="#222" stroke-width="1.5"/>
<line x1="86" y1="70" x2="86" y2="472" stroke="#222" stroke-width="1.5"/>
<text x="86.00" y="497" text-anchor="middle" font-family="Arial" font-size="12">1</text>
<text x="249.50" y="497" text-anchor="middle" font-family="Arial" font-size="12">92</text>
<text x="413.00" y="497" text-anchor="middle" font-family="Arial" font-size="12">183</text>
<text x="576.50" y="497" text-anchor="middle" font-family="Arial" font-size="12">274</text>
<text x="740.00" y="497" text-anchor="middle" font-family="Arial" font-size="12">365</text>
<text x="413.0" y="535" text-anchor="middle" font-family="Arial" font-size="14">Dia</text>
<text x="26" y="271.0" text-anchor="middle" font-family="Arial" font-size="14" transform="rotate(-90 26 271.0)">Unidades</text>
<polyline points="86.00,263.13 87.80,301.85 89.59,346.35 91.39,383.22 93.19,422.97 94.98,461.70 96.78,393.11 98.58,374.36 100.37,414.74 102.17,449.55 103.97,401.76 105.76,373.95 107.56,402.79 109.36,440.48 111.15,425.45 112.95,378.07 114.75,382.60 116.54,421.33 118.34,427.71 120.14,425.03 121.93,367.56 123.73,412.88 125.53,417.62 127.32,440.28 129.12,391.05 130.92,398.87 132.71,406.50 134.51,428.12 136.31,387.75 138.10,412.68 139.90,431.63 141.70,420.09 143.49,411.03 145.29,417.00 147.09,421.12 148.88,403.20 150.68,393.93 152.48,402.17 154.27,424.21 156.07,413.29 157.87,400.11 159.66,420.09 161.46,408.76 163.26,397.64 165.05,402.58 166.85,426.48 168.65,427.92 170.45,403.20 172.24,390.63 174.04,413.91 175.84,422.97 177.63,396.81 179.43,398.46 181.23,407.94 183.02,413.91 184.82,402.99 186.62,408.35 188.41,417.21 190.21,423.39 192.01,418.85 193.80,396.40 195.60,400.93 197.40,422.77 199.19,414.74 200.99,404.23 202.79,395.99 204.58,418.03 206.38,425.86 208.18,418.44 209.97,400.32 211.77,422.97 213.57,412.06 215.36,414.32 217.16,393.93 218.96,417.21 220.75,423.59 222.55,423.80 224.35,381.57 226.14,405.47 227.94,429.15 229.74,429.98 231.53,383.63 233.33,389.40 235.13,413.50 236.92,436.98 238.72,397.64 240.52,388.16 242.31,427.51 244.11,431.01 245.91,400.32 247.70,390.02 249.50,412.26 251.30,416.59 253.09,419.06 254.89,407.53 256.69,411.85 258.48,402.58 260.28,421.33 262.08,391.87 263.87,411.23 265.67,398.87 267.47,427.09 269.26,382.19 271.06,405.05 272.86,414.53 274.65,421.94 276.45,407.53 278.25,396.81 280.04,401.96 281.84,411.23 283.64,420.30 285.43,407.11 287.23,408.14 289.03,394.96 290.82,420.09 292.62,393.11 294.42,410.20 296.21,398.87 298.01,403.82 299.81,423.80 301.60,417.21 303.40,385.28 305.20,390.22 306.99,428.74 308.79,421.74 310.59,412.06 312.38,386.93 314.18,427.30 315.98,426.89 317.77,413.09 319.57,385.90 321.37,408.56 323.16,414.94 324.96,406.08 326.76,407.73 328.55,395.37 330.35,404.23 332.15,421.94 333.95,422.36 335.74,392.49 337.54,386.51 339.34,419.47 341.13,421.94 342.93,397.64 344.73,387.13 346.52,406.50 348.32,426.06 350.12,419.68 351.91,404.44 353.71,399.29 355.51,434.10 357.30,410.62 359.10,411.03 360.90,389.19 362.69,430.60 364.49,415.76 366.29,402.58 368.08,374.57 369.88,418.44 371.68,450.78 373.47,406.70 375.27,395.99 377.07,405.67 378.86,439.66 380.66,397.02 382.46,403.82 384.25,410.00 386.05,431.63 387.85,386.51 389.64,413.50 391.44,407.32 393.24,424.62 395.03,399.49 396.83,417.62 398.63,393.93 400.42,433.69 402.22,394.75 404.02,415.35 405.81,400.93 407.61,424.42 409.41,407.32 411.20,398.26 413.00,410.20 414.80,434.30 416.59,423.39 418.39,394.55 420.19,401.35 421.98,424.21 423.78,419.06 425.58,391.05 427.37,403.20 429.17,429.77 430.97,426.89 432.76,410.62 434.56,390.22 436.36,416.18 438.15,445.63 439.95,401.35 441.75,391.25 443.54,416.38 445.34,439.87 447.14,420.50 448.93,381.16 450.73,405.88 452.53,430.80 454.32,415.97 456.12,377.04 457.92,415.56 459.71,439.87 461.51,423.18 463.31,377.66 465.10,400.32 466.90,425.65 468.70,427.71 470.49,387.13 472.29,406.91 474.09,413.91 475.88,414.32 477.68,406.70 479.48,408.97 481.27,426.68 483.07,420.91 484.87,407.53 486.66,408.14 488.46,418.65 490.26,408.56 492.05,399.29 493.85,421.53 495.65,409.38 497.45,417.00 499.24,391.46 501.04,413.91 502.84,402.79 504.63,407.11 506.43,411.65 508.23,405.88 510.02,414.12 511.82,406.29 513.62,412.06 515.41,401.35 517.21,404.64 519.01,424.42 520.80,397.64 522.60,403.82 524.40,406.08 526.19,420.09 527.99,392.08 529.79,399.49 531.58,416.79 533.38,419.06 535.18,407.32 536.97,394.34 538.77,415.97 540.57,404.64 542.36,407.11 544.16,395.78 545.96,398.87 547.75,405.26 549.55,412.06 551.35,404.23 553.14,403.20 554.94,393.31 556.74,417.21 558.53,421.94 560.33,415.35 562.13,410.62 563.92,404.85 565.72,412.26 567.52,409.59 569.31,399.70 571.11,389.40 572.91,429.36 574.70,418.85 576.50,404.64 578.30,379.10 580.09,420.50 581.89,438.01 583.69,419.88 585.48,380.33 587.28,405.67 589.08,426.48 590.87,417.82 592.67,391.87 594.47,396.61 596.26,418.44 598.06,406.70 599.86,386.51 601.65,420.50 603.45,410.41 605.25,427.09 607.04,386.31 608.84,408.35 610.64,404.02 612.43,434.10 614.23,404.44 616.03,408.56 617.82,400.73 619.62,422.15 621.42,394.75 623.21,419.68 625.01,406.50 626.81,410.82 628.60,403.82 630.40,411.85 632.20,430.18 633.99,407.32 635.79,413.09 637.59,405.05 639.38,422.56 641.18,402.58 642.98,409.79 644.77,411.65 646.57,419.68 648.37,406.70 650.16,396.40 651.96,402.58 653.76,407.11 655.55,400.52 657.35,425.03 659.15,426.89 660.95,411.44 662.74,393.72 664.54,414.32 666.34,418.03 668.13,406.70 669.93,398.26 671.73,406.50 673.52,412.68 675.32,416.38 677.12,385.90 678.91,392.28 680.71,408.14 682.51,419.06 684.30,421.74 686.10,378.89 687.90,400.52 689.69,412.06 691.49,432.24 693.29,409.17 695.08,397.84 696.88,406.50 698.68,428.54 700.47,415.35 702.27,390.22 704.07,396.61 705.86,419.47 707.66,411.44 709.46,442.75 711.25,395.99 713.05,397.23 714.85,407.32 716.64,431.01 718.44,414.53 720.24,398.67 722.03,412.26 723.83,427.92 725.63,400.11 727.42,404.64 729.22,392.49 731.02,416.38 732.81,422.97 734.61,398.67 736.41,405.47 738.20,409.59 740.00,413.71" fill="none" stroke="#1f77b4" stroke-width="2.5"/>
<polyline points="86.00,270.54 87.80,312.36 89.59,353.14 91.39,395.78 93.19,410.00 94.98,227.29 96.78,267.45 98.58,311.53 100.37,352.94 102.17,393.31 103.97,411.44 105.76,251.80 107.56,271.98 109.36,307.62 111.15,342.64 112.95,383.01 114.75,330.90 116.54,297.12 118.34,289.08 120.14,307.83 121.93,348.82 123.73,365.09 125.53,359.12 127.32,321.22 129.12,264.16 130.92,300.62 132.71,341.81 134.51,379.30 136.31,345.93 138.10,314.42 139.90,304.74 141.70,294.64 143.49,337.49 145.29,382.60 147.09,373.54 148.88,307.00 150.68,273.22 152.48,290.52 154.27,337.28 156.07,380.13 157.87,367.98 159.66,312.77 161.46,311.12 163.26,300.41 165.05,340.37 166.85,386.72 168.65,354.17 170.45,320.60 172.24,292.17 174.04,312.15 175.84,357.06 177.63,349.23 179.43,336.67 181.23,327.19 183.02,271.98 184.82,312.77 186.62,327.81 188.41,346.14 190.21,365.92 192.01,333.99 193.80,300.00 195.60,315.24 197.40,328.43 199.19,348.41 200.99,342.02 202.79,358.09 204.58,304.74 206.38,343.67 208.18,338.73 209.97,349.85 211.77,320.19 213.57,312.15 215.36,301.44 217.16,342.64 218.96,336.05 220.75,355.00 222.55,325.54 224.35,318.13 226.14,332.13 227.94,320.60 229.74,333.78 231.53,345.73 233.33,336.05 235.13,298.35 236.92,289.29 238.72,329.66 240.52,346.76 242.31,332.55 244.11,326.78 245.91,273.43 247.70,313.59 249.50,329.46 251.30,350.05 253.09,315.65 254.89,357.68 256.69,301.24 258.48,317.30 260.28,328.63 262.08,321.42 263.87,341.81 265.67,331.31 267.47,295.06 269.26,308.24 271.06,349.64 272.86,344.90 274.65,340.37 276.45,362.00 278.25,331.72 280.04,325.54 281.84,364.68 283.64,304.53 285.43,347.99 287.23,343.05 289.03,337.08 290.82,328.84 292.62,372.92 294.42,317.10 296.21,311.33 298.01,329.46 299.81,346.96 301.60,332.96 303.40,356.03 305.20,350.88 306.99,315.24 308.79,310.09 310.59,301.03 312.38,342.02 314.18,356.03 315.98,325.75 317.77,317.71 319.57,306.59 321.37,293.61 323.16,339.76 324.96,356.44 326.76,348.41 328.55,293.00 330.35,332.55 332.15,295.47 333.95,343.46 335.74,362.83 337.54,351.08 339.34,293.41 341.13,315.24 342.93,308.65 344.73,348.20 346.52,367.77 348.32,336.87 350.12,274.66 351.91,316.07 353.71,331.10 355.51,320.39 357.30,362.62 359.10,330.49 360.90,293.82 362.69,310.09 364.49,300.41 366.29,336.87 368.08,353.35 369.88,344.29 371.68,309.27 373.47,323.89 375.27,322.86 377.07,340.99 378.86,358.50 380.66,352.53 382.46,293.61 384.25,337.28 386.05,326.16 387.85,340.17 389.64,353.35 391.44,316.27 393.24,283.52 395.03,297.53 396.83,314.83 398.63,351.70 400.42,344.90 402.22,340.78 404.02,334.81 405.81,302.27 407.61,318.95 409.41,339.14 411.20,328.22 413.00,345.32 414.80,310.50 416.59,300.00 418.39,318.95 420.19,333.58 421.98,308.24 423.78,348.20 425.58,343.46 427.37,305.77 429.17,350.05 430.97,312.56 432.76,303.71 434.56,297.53 436.36,341.61 438.15,331.72 439.95,351.91 441.75,344.49 443.54,339.96 445.34,332.55 447.14,301.24 448.93,337.49 450.73,358.09 452.53,326.57 454.32,346.55 456.12,339.14 457.92,308.65 459.71,347.17 461.51,362.21 463.31,332.75 465.10,323.48 466.90,290.73 468.70,306.59 470.49,318.74 472.29,330.28 474.09,367.56 475.88,307.00 477.68,322.25 479.48,292.79 481.27,333.16 483.07,326.57 484.87,343.05 486.66,309.89 488.46,352.11 490.26,344.29 492.05,308.24 493.85,324.10 495.65,344.29 497.45,310.92 499.24,353.56 501.04,348.61 502.84,291.55 504.63,304.74 506.43,336.87 508.23,302.06 510.02,324.10 511.82,314.83 513.62,314.42 515.41,330.49 517.21,344.49 519.01,315.45 520.80,331.31 522.60,321.83 524.40,337.90 526.19,328.22 527.99,327.40 529.79,317.10 531.58,313.39 533.38,301.85 535.18,318.33 536.97,334.19 538.77,373.95 540.57,316.48 542.36,310.09 544.16,300.41 545.96,319.57 547.75,361.38 549.55,349.44 551.35,341.40 553.14,289.08 554.94,299.18 556.74,317.92 558.53,331.72 560.33,342.84 562.13,334.61 563.92,326.78 565.72,269.10 567.52,307.83 569.31,322.45 571.11,367.56 572.91,358.50 574.70,325.34 576.50,343.26 578.30,290.52 580.09,335.84 581.89,329.46 583.69,367.15 585.48,338.52 587.28,329.66 589.08,327.40 590.87,345.32 592.67,337.08 594.47,324.31 596.26,341.81 598.06,308.65 599.86,325.54 601.65,340.99 603.45,330.69 605.25,323.48 607.04,342.64 608.84,329.66 610.64,300.41 612.43,291.35 614.23,330.07 616.03,294.44 617.82,334.40 619.62,347.79 621.42,342.64 623.21,309.06 625.01,324.31 626.81,316.27 628.60,330.69 630.40,352.11 632.20,291.35 633.99,305.35 635.79,345.11 637.59,315.04 639.38,330.90 641.18,346.35 642.98,312.98 644.77,331.31 646.57,351.50 648.37,344.90 650.16,335.64 651.96,331.31 653.76,300.82 655.55,338.52 657.35,352.53 659.15,321.01 660.95,311.95 662.74,350.88 664.54,316.48 666.34,307.00 668.13,320.80 669.93,311.33 671.73,303.09 673.52,345.32 675.32,314.62 677.12,333.16 678.91,324.51 680.71,366.33 682.51,309.89 684.30,349.44 686.10,320.80 687.90,312.36 689.69,323.89 691.49,339.14 693.29,308.44 695.08,324.31 696.88,310.71 698.68,328.01 700.47,317.10 702.27,338.93 704.07,306.38 705.86,347.79 707.66,337.28 709.46,310.71 711.25,326.37 713.05,317.71 714.85,329.25 716.64,346.35 718.44,336.46 720.24,331.31 722.03,299.18 723.83,320.60 725.63,336.67 727.42,353.14 729.22,324.10 731.02,314.42 732.81,305.35 734.61,318.33 736.41,334.81 738.20,373.74 740.00,340.37" fill="none" stroke="#d62728" stroke-width="2.5"/>
<polyline points="86.00,267.66 87.80,308.24 89.59,349.85 91.39,353.97 93.19,99.78 94.98,135.21 96.78,176.41 98.58,219.25 100.37,254.48 102.17,297.12 103.97,335.64 105.76,310.71 107.56,154.57 109.36,126.97 111.15,170.43 112.95,213.28 114.75,260.86 116.54,303.50 118.34,351.50 120.14,264.57 121.93,177.02 123.73,186.09 125.53,192.47 127.32,233.26 129.12,279.81 130.92,322.86 132.71,327.60 134.51,166.52 136.31,143.65 138.10,183.00 139.90,227.08 141.70,263.13 143.49,271.78 145.29,314.01 147.09,323.89 148.88,168.99 150.68,147.57 152.48,186.71 154.27,228.52 156.07,273.63 157.87,283.52 159.66,327.81 161.46,304.12 163.26,143.24 165.05,151.28 166.85,193.91 168.65,232.64 170.45,276.31 172.24,287.02 174.04,329.87 175.84,272.81 177.63,155.81 179.43,157.87 181.23,197.42 183.02,239.03 184.82,278.37 186.62,313.80 188.41,287.02 190.21,291.97 192.01,169.20 193.80,174.14 195.60,190.21 197.40,232.85 199.19,268.89 200.99,315.24 202.79,293.00 204.58,265.80 206.38,141.80 208.18,184.65 209.97,188.15 211.77,225.23 213.57,264.36 215.36,269.10 217.16,309.68 218.96,251.59 220.75,227.70 222.55,132.94 224.35,173.11 226.14,212.66 227.94,248.91 229.74,291.14 231.53,296.70 233.33,302.27 235.13,244.59 236.92,120.58 238.72,163.02 240.52,199.27 242.31,236.76 244.11,273.01 245.91,284.14 247.70,291.97 249.50,266.83 251.30,176.41 253.09,154.57 254.89,194.94 256.69,229.76 258.48,271.98 260.28,282.49 262.08,291.76 263.87,230.58 265.67,169.61 267.47,144.89 269.26,188.97 271.06,226.26 272.86,267.04 274.65,279.61 276.45,290.52 278.25,262.10 280.04,174.76 281.84,184.85 283.64,196.39 285.43,232.64 287.23,270.13 289.03,210.39 290.82,251.18 292.62,224.61 294.42,195.56 296.21,201.74 298.01,209.16 299.81,212.87 301.60,255.92 303.40,269.72 305.20,281.05 306.99,216.78 308.79,189.18 310.59,200.92 312.38,243.56 314.18,219.87 315.98,259.01 317.77,301.85 319.57,280.02 321.37,220.49 323.16,161.99 324.96,201.33 326.76,205.66 328.55,210.60 330.35,249.33 332.15,286.40 333.95,293.41 335.74,297.32 337.54,141.39 339.34,180.53 341.13,188.56 342.93,229.14 344.73,235.73 346.52,275.69 348.32,281.87 350.12,260.66 351.91,169.40 353.71,177.23 355.51,187.94 357.30,229.14 359.10,234.08 360.90,273.63 362.69,249.53 364.49,289.49 366.29,200.09 368.08,143.65 369.88,183.41 371.68,189.79 373.47,227.49 375.27,238.61 377.07,279.81 378.86,294.23 380.66,303.09 382.46,184.44 384.25,191.24 386.05,202.15 387.85,243.35 389.64,248.50 391.44,287.85 393.24,299.38 395.03,241.70 396.83,180.73 398.63,191.03 400.42,194.74 402.22,234.08 404.02,239.44 405.81,278.99 407.61,324.10 409.41,299.59 411.20,167.96 413.00,176.20 414.80,185.26 416.59,225.84 418.39,232.85 420.19,280.02 421.98,314.83 423.78,260.24 425.58,202.36 427.37,175.17 429.17,183.20 430.97,225.84 432.76,273.43 434.56,282.49 436.36,290.73 438.15,235.52 439.95,216.37 441.75,193.30 443.54,236.35 445.34,246.44 447.14,252.83 448.93,257.36 450.73,266.01 452.53,244.18 454.32,153.95 456.12,198.45 457.92,205.04 459.71,250.97 461.51,258.60 463.31,271.16 465.10,313.18 466.90,291.76 468.70,173.11 470.49,178.47 472.29,219.66 474.09,261.27 475.88,236.55 477.68,248.50 479.48,290.52 481.27,263.95 483.07,206.27 484.87,176.20 486.66,216.16 488.46,257.15 490.26,237.17 492.05,244.79 493.85,285.17 495.65,265.60 497.45,239.44 499.24,180.94 501.04,220.08 502.84,223.58 504.63,265.80 506.43,244.79 508.23,285.37 510.02,260.66 511.82,171.46 513.62,182.38 515.41,223.37 517.21,266.83 519.01,248.09 520.80,251.18 522.60,260.45 524.40,236.35 526.19,210.81 527.99,184.85 529.79,224.40 531.58,266.01 533.38,275.90 535.18,248.30 536.97,251.18 538.77,262.30 540.57,205.66 542.36,183.00 544.16,221.11 545.96,259.83 547.75,240.06 549.55,212.25 551.35,247.47 553.14,224.81 554.94,237.38 556.74,179.91 558.53,217.81 560.33,255.30 562.13,263.75 563.92,210.81 565.72,250.15 567.52,261.27 569.31,235.11 571.11,209.57 572.91,213.69 574.70,252.00 576.50,232.02 578.30,240.67 580.09,290.32 581.89,235.52 583.69,240.67 585.48,184.23 587.28,191.44 589.08,227.90 590.87,234.49 592.67,276.10 594.47,247.88 596.26,259.21 598.06,236.76 599.86,247.27 601.65,191.03 603.45,225.23 605.25,234.70 607.04,237.58 608.84,252.83 610.64,262.51 612.43,267.04 614.23,173.52 616.03,182.59 617.82,195.36 619.62,232.23 621.42,275.49 623.21,246.24 625.01,222.14 626.81,226.46 628.60,167.96 630.40,208.13 632.20,180.94 633.99,221.72 635.79,257.36 637.59,268.89 639.38,279.61 641.18,283.93 642.98,190.62 644.77,165.28 646.57,174.55 648.37,216.37 650.16,264.78 651.96,273.43 653.76,316.27 655.55,222.34 657.35,196.18 659.15,171.67 660.95,182.17 662.74,225.64 664.54,259.83 666.34,265.19 668.13,310.92 669.93,252.62 671.73,191.44 673.52,167.55 675.32,175.17 677.12,216.78 678.91,262.10 680.71,302.68 682.51,279.19 684.30,319.77 686.10,165.49 687.90,172.90 689.69,180.32 691.49,222.75 693.29,261.69 695.08,304.32 696.88,312.56 698.68,255.92 700.47,201.74 702.27,136.44 704.07,180.11 705.86,218.22 707.66,256.95 709.46,295.06 711.25,332.34 713.05,238.20 714.85,214.10 716.64,153.54 718.44,160.75 720.24,195.97 722.03,235.52 723.83,273.63 725.63,317.10 727.42,328.01 729.22,200.30 731.02,180.11 732.81,152.72 734.61,197.42 736.41,237.17 738.20,278.58 740.00,325.13" fill="none" stroke="#2ca02c" stroke-width="2.5"/>
<line x1="770" y1="78" x2="798" y2="78" stroke="#1f77b4" stroke-width="2.5"/>
<text x="808" y="82" font-family="Arial" font-size="13">bajo_inventario</text>
<line x1="770" y1="102" x2="798" y2="102" stroke="#d62728" stroke-width="2.5"/>
<text x="808" y="106" font-family="Arial" font-size="13">balanceada</text>
<line x1="770" y1="126" x2="798" y2="126" stroke="#2ca02c" stroke-width="2.5"/>
<text x="808" y="130" font-family="Arial" font-size="13">alto_servicio</text>
</svg>
